<?xml version="1.0" encoding="UTF-8"?>
<svg width="7px" height="7px" viewBox="0 0 7 7" version="1.1" xmlns="http://www.w3.org/2000/svg" xmlns:xlink="http://www.w3.org/1999/xlink">
    <!-- <title>cancel</title> -->
    <defs>
        <polygon id="path-1" points="0 -0.0001 6.5104125 -0.0001 6.5104125 6.5104 0 6.5104"></polygon>
    </defs>
    <g id="Welcome" stroke="none" stroke-width="1" fill="none" fill-rule="evenodd">
        <g id="Icons" transform="translate(-303.000000, -456.000000)">
            <g id="cancel" transform="translate(303.000000, 456.000000)">
                <mask id="mask-2" fill="white">
                    <use xlink:href="#path-1"></use>
                </mask>
                <g id="Clip-2"></g>
                <path d="M0.6036,0.0732 L0.0731,0.6037 C-0.0244,0.7012 -0.0244,0.85945 0.0731,0.9572 L2.28285,3.16695 C2.33185,3.2157 2.33185,3.2947 2.28285,3.3437 L0.0731,5.5532 C-0.0244,5.65095 -0.0244,5.8092 0.0731,5.9067 L0.6036,6.4372 C0.7011,6.53495 0.85935,6.53495 0.9571,6.4372 L3.16685,4.22745 C3.2156,4.1787 3.29485,4.1787 3.3436,4.22745 L5.55335,6.4372 C5.65085,6.53495 5.8091,6.53495 5.90685,6.4372 L6.4371,5.9067 C6.53485,5.8092 6.53485,5.65095 6.4371,5.5532 L4.22735,3.3437 C4.1786,3.2947 4.1786,3.2157 4.22735,3.16695 L6.4371,0.9572 C6.53485,0.85945 6.53485,0.7012 6.4371,0.6037 L5.90685,0.0732 C5.8091,-0.02455 5.65085,-0.02455 5.55335,0.0732 L3.3436,2.28295 C3.29485,2.3317 3.2156,2.3317 3.16685,2.28295 L0.9571,0.0732 C0.85935,-0.02455 0.7011,-0.02455 0.6036,0.0732" id="Fill-1" fill="#000000" mask="url(#mask-2)"></path>
            </g>
        </g>
    </g>
</svg>