<?xml version="1.0" encoding="utf-8"?>
<!-- Generator: Adobe Illustrator 25.2.0, SVG Export Plug-In . SVG Version: 6.00 Build 0)  -->
<svg version="1.1" id="Layer_1" xmlns="http://www.w3.org/2000/svg" xmlns:xlink="http://www.w3.org/1999/xlink" x="0px" y="0px"
	 viewBox="0 0 900 900" style="enable-background:new 0 0 900 900;" xml:space="preserve">
<path d="M663.4,157.3c-4.7,0-10.4-0.9-15.1-0.9c-5.7,0-10.4,0-15.1,0.9V76.1H39.9v747.2h591.3V700.4l15.1-12.3l15.1,12.3l87.9,70.8
	l61.4,49.1L800.3,743l-27.4-201.2c52.9-38.7,86.9-102,86.9-171.9C861.7,257.4,773.9,164.8,663.4,157.3z M550,560.6
	c29.3,15.1,62.3,23.6,97.3,23.6c35,0,68-8.5,97.3-23.6l25.5,187l-122.8-99.2l-122.8,99.2L550,560.6z M647.3,553.1
	c-101.1,0-182.3-82.2-182.3-182.3c0-101.1,82.2-182.3,182.3-182.3s182.3,82.2,182.3,182.3C830.6,470.9,748.4,553.1,647.3,553.1z
	 M173.1,192.2H328v15.1l0,0l0,0v15.1H173.1v-15.1l0,0l0,0V192.2z M173.1,328.3v-15.1h191.8v15.1l0,0l0,0v15.1H173.1V328.3
	L173.1,328.3L173.1,328.3z M173.1,449.2v-15.1h85v31.2h-85V449.2L173.1,449.2L173.1,449.2z M364.9,706.1H173.1V691l0,0l0,0v-15.1
	h191.8V691l0,0l0,0V706.1z M411.2,585.2h-238v-15.1l0,0l0,0V555h239v15.1l0,0l0,0v15.1H411.2z"/>
<path d="M774.5,287.6l-18.6-21.7c-8.7-10.5-24.2-11.8-34.7-2.5L585.5,379.3l50.8,59.5l136.3-115.9
	C782.6,313.6,783.8,297.5,774.5,287.6z"/>
<path d="M524.8,469.1c-3.7,8.1,3.7,17.4,13,14.9l45.9-11.8c8.7-2.5,16.7-6.2,24.8-11.8l-49.6-57.6c-6.2,6.8-11.8,14.3-15.5,22.3
	L524.8,469.1z"/>
</svg>
