<svg id="Layer_1" enable-background="new 0 0 512.478 512.478" height="512" viewBox="0 0 512.478 512.478" width="512" xmlns="http://www.w3.org/2000/svg"><g><path d="m271.129 163.739-40.219-28.587 2.477 39.338z"/><path d="m371.189 284.09c7.021 0 13.911.566 20.634 1.641v-273.492c0-6.76-5.462-12.239-12.2-12.239h-223.736c-6.738 0-12.2 5.48-12.2 12.239v71.47h68.077c3.24.143 6.312.678 9.797 3.129l98.221 69.816c.459 1.017 6.304 2.908 6.968 13.742v121.511c13.877-5.056 28.842-7.817 44.439-7.817z"/><path d="m56.804 512.478h227.167c-26.601-23.997-43.359-58.769-43.359-97.397 0-42.771 20.542-80.817 52.246-104.738v-117.45l-70.43 20.061c-8.516 2.86-21.058-3.91-21.539-15.282l-5.034-79.965h-139.051c-6.738 0-12.2 5.48-12.2 12.239v370.292c0 6.76 5.462 12.24 12.2 12.24zm59.403-248.909h104.906c9.359 0 16.945 7.611 16.945 16.999s-7.587 16.999-16.945 16.999h-104.906c-9.359 0-16.945-7.611-16.945-16.999s7.587-16.999 16.945-16.999z"/><path d="m318.85 496.57c.189.12.381.236.565.363 14.981 9.57 32.736 15.142 51.774 15.142 53.313 0 96.685-43.512 96.685-96.994s-43.373-96.993-96.685-96.993-96.686 43.511-96.686 96.993c0 34.143 17.692 64.2 44.347 81.489zm4.779-126.289c0-9.388 7.587-16.999 16.945-16.999h61.229c9.359 0 16.945 7.611 16.945 16.999s-7.587 16.999-16.945 16.999h-44.284v13.068h28.093c9.359 0 16.945 7.611 16.945 16.999s-7.587 16.999-16.945 16.999h-28.093v25.535c0 9.388-7.587 16.999-16.945 16.999s-16.945-7.611-16.945-16.999z"/></g></svg>