<?xml version="1.0" encoding="UTF-8"?>
<svg width="16px" height="21px" viewBox="0 0 16 21" version="1.1" xmlns="http://www.w3.org/2000/svg" xmlns:xlink="http://www.w3.org/1999/xlink">
    <!-- <title>Generate Report</title> -->
    <defs>
        <polygon id="path-1" points="8e-05 0.18 15.71988 0.18 15.71988 19.19996 8e-05 19.19996"></polygon>
    </defs>
    <g id="Welcome" stroke="currentColor" stroke-width="1" fill="none" fill-rule="evenodd">
        <g id="Icons" transform="translate(-298.000000, -685.000000)">
            <g id="Generate-Report" transform="translate(298.000000, 685.000000)">
                <g id="Group-3" transform="translate(0.000000, 0.020000)">
                    <mask id="mask-2" fill="white">
                        <use xlink:href="#path-1"></use>
                    </mask>
                    <g id="Clip-2"></g>
                    <path d="M14.84008,15.33996 C14.84008,15.43996 14.76008,15.53996 14.64008,15.53996 L3.86008,15.53996 C3.76008,15.53996 3.66008,15.46016 3.66008,15.33996 L3.66008,1.23996 C3.66008,1.13996 3.74008,1.03996 3.86008,1.03996 L14.66008,1.03996 C14.76008,1.03996 14.86008,1.11996 14.86008,1.23996 L14.86008,15.33996 L14.84008,15.33996 Z M12.06008,18.11996 C12.06008,18.21996 11.97988,18.29996 11.86008,18.29996 L1.06008,18.29996 C0.96008,18.29996 0.88008,18.21996 0.88008,18.11996 L0.88008,4.01996 C0.88008,3.91996 0.96008,3.83996 1.06008,3.83996 L2.80008,3.83996 L2.80008,15.33996 C2.80008,15.91996 3.28008,16.39996 3.86008,16.39996 L12.06008,16.39996 L12.06008,18.11996 Z M14.66008,0.17996 L3.86008,0.17996 C3.28008,0.17996 2.80008,0.65996 2.80008,1.23996 L2.80008,2.97996 L1.06008,2.97996 C0.48008,2.97996 8e-05,3.45996 8e-05,4.03996 L8e-05,18.13996 C8e-05,18.71996 0.48008,19.19996 1.06008,19.19996 L11.86008,19.19996 C12.44008,19.19996 12.91988,18.71996 12.91988,18.13996 L12.91988,16.39996 L14.66008,16.39996 C15.24008,16.39996 15.71988,15.91996 15.71988,15.33996 L15.71988,1.23996 C15.70008,0.65996 15.24008,0.17996 14.66008,0.17996 L14.66008,0.17996 Z" id="Fill-1" fill="#000000" mask="url(#mask-2)"></path>
                </g>
                <path d="M12.46,10.34004 L6.04,10.34004 C5.8,10.34004 5.6,10.54004 5.6,10.78004 C5.6,11.02004 5.8,11.22004 6.04,11.22004 L12.46,11.22004 C12.7,11.22004 12.9,11.02004 12.9,10.78004 C12.9,10.54004 12.7,10.34004 12.46,10.34004" id="Fill-4" fill="#000000"></path>
                <path d="M12.46,12.94004 L6.04,12.94004 C5.8,12.94004 5.6,13.14004 5.6,13.38004 C5.6,13.61984 5.8,13.81984 6.04,13.81984 L12.46,13.81984 C12.7,13.81984 12.9,13.61984 12.9,13.38004 C12.9,13.14004 12.7,12.94004 12.46,12.94004" id="Fill-6" fill="#000000"></path>
                <path d="M12.46,7.75996 L6.04,7.75996 C5.8,7.75996 5.6,7.95996 5.6,8.19996 C5.6,8.43996 5.8,8.63996 6.04,8.63996 L12.46,8.63996 C12.7,8.63996 12.9,8.43996 12.9,8.19996 C12.9,7.93996 12.7,7.75996 12.46,7.75996" id="Fill-8" fill="#000000"></path>
                <path d="M6.80004,6.1 L7.58004,6.1 C7.68004,6.1 7.74004,6.02 7.74004,5.94 L7.74004,4.7 C7.74004,4.6 7.66004,4.54 7.58004,4.54 L6.80004,4.54 C6.70004,4.54 6.64004,4.62 6.64004,4.7 L6.64004,5.94 C6.64004,6.02 6.72004,6.1 6.80004,6.1" id="Fill-10" fill="#000000"></path>
                <path d="M8.74008,6.1 L9.51988,6.1 C9.61988,6.1 9.67988,6.02 9.67988,5.94 L9.67988,3.8 C9.67988,3.7 9.60008,3.64 9.51988,3.64 L8.74008,3.64 C8.64008,3.64 8.57988,3.72 8.57988,3.8 L8.57988,5.92 C8.57988,6.02 8.66008,6.1 8.74008,6.1" id="Fill-12" fill="#000000"></path>
                <path d="M10.67992,6.1 L11.45992,6.1 C11.55992,6.1 11.61992,6.02 11.61992,5.94 L11.61992,2.94 C11.61992,2.86 11.54012,2.78 11.45992,2.78 L10.67992,2.78 C10.57992,2.78 10.51992,2.86 10.51992,2.94 L10.51992,5.94 C10.51992,6.02 10.60012,6.1 10.67992,6.1" id="Fill-14" fill="#000000"></path>
            </g>
        </g>
    </g>
</svg>