<?xml version="1.0" encoding="utf-8"?>
<!-- Generator: Adobe Illustrator 24.1.0, SVG Export Plug-In . SVG Version: 6.00 Build 0)  -->
<svg version="1.1" id="Layer_1" xmlns="http://www.w3.org/2000/svg" xmlns:xlink="http://www.w3.org/1999/xlink" x="0px" y="0px"
	 viewBox="0 0 512 512" style="enable-background:new 0 0 512 512;" xml:space="preserve">
<style type="text/css">
	.st0{fill:#FFFFFF;}
</style>
<g>
	<path d="M270.9,163.6L230.7,135l2.5,39.3L270.9,163.6z"/>
	<path d="M370.8,283.8c7,0,13.9,0.6,20.6,1.6V12.2C391.5,5.5,386,0,379.3,0H155.7c-6.7,0-12.2,5.5-12.2,12.2v71.4h68
		c3.2,0.1,6.3,0.7,9.8,3.1l98.1,69.8c0.5,1,6.3,2.9,7,13.7v121.4C340.3,286.6,355.3,283.8,370.8,283.8z"/>
	<path d="M56.8,512h227c-26.6-24-43.3-58.7-43.3-97.3c0-42.7,20.5-80.7,52.2-104.6V192.7l-70.4,20c-8.5,2.9-21-3.9-21.5-15.3
		l-5-79.9H56.8c-6.7,0-12.2,5.5-12.2,12.2v369.9C44.6,506.5,50,512,56.8,512L56.8,512z M116.1,263.3h104.8c9.4,0,16.9,7.6,16.9,17
		s-7.6,17-16.9,17H116.1c-9.4,0-16.9-7.6-16.9-17S106.7,263.3,116.1,263.3z"/>
	<path d="M318.6,496.1c0.2,0.1,0.4,0.2,0.6,0.4c15,9.6,32.7,15.1,51.7,15.1c53.3,0,96.6-43.5,96.6-96.9s-43.3-96.9-96.6-96.9
		s-96.6,43.5-96.6,96.9C274.2,448.8,291.9,478.8,318.6,496.1L318.6,496.1z"/>
</g>
<g>
	<path class="st0" d="M324.9,480.9c-3.2-3.2-4.7-7.4-4.7-12.9V364.7c0-5.3,1.4-9.3,4.3-12.2c2.8-2.8,6.9-4.3,12.2-4.3h49.5
		c15.1,0,26.8,3.8,35.2,11.5c8.4,7.7,12.6,18.3,12.6,32c0,13.5-4.2,24.2-12.7,31.9c-8.4,7.7-20.1,11.6-35.1,11.6h-30.3V468
		c0,5.4-1.6,9.7-4.8,12.9c-3.2,3.2-7.6,4.7-13.1,4.7C332.4,485.6,328.1,484,324.9,480.9z M395.9,404.5c3.2-2.7,4.7-6.9,4.7-12.6
		c0-11.2-6.4-16.8-19.3-16.8h-25.5v33.4h25.5C387.8,408.5,392.7,407.2,395.9,404.5z"/>
</g>
</svg>
