<?xml version="1.0" encoding="UTF-8"?>
<svg width="17px" height="21px" viewBox="0 0 17 21" version="1.1" xmlns="http://www.w3.org/2000/svg" xmlns:xlink="http://www.w3.org/1999/xlink">
    <!-- <title>recommend-recal</title> -->
    <defs>
        <polygon id="path-1" points="0.000144 0.000288 16.76088 0.000288 16.76088 20.7324 0.000144 20.7324"></polygon>
    </defs>
    <g id="Welcome" stroke="none" stroke-width="1" fill="none" fill-rule="evenodd">
        <g id="Icons" transform="translate(-298.000000, -373.000000)">
            <g id="recommend-recal" transform="translate(298.000000, 373.000000)">
                <mask id="mask-2" fill="white">
                    <use xlink:href="#path-1"></use>
                </mask>
                <g id="Clip-2"></g>
                <path d="M2.64312,5.80032 L10.80288,5.80032 L10.80288,2.9016 L2.64312,2.9016 L2.64312,5.80032 Z M11.68128,6.23952 L11.68128,2.4624 C11.68128,2.21976 11.48544,2.0232 11.2428,2.0232 L2.20464,2.0232 C1.96128,2.0232 1.76544,2.21976 1.76544,2.4624 L1.76544,6.2388 C1.76544,6.48144 1.96128,6.67800196 2.20464,6.67800196 L11.2428,6.67800196 C11.48544,6.67872 11.68128,6.48144 11.68128,6.23952 L11.68128,6.23952 Z" id="Fill-1" fill="#000000" mask="url(#mask-2)"></path>
                <path d="M2.4624,14.59152 L3.78648,14.59152 L3.78648,14.00688 L2.4624,14.00688 L2.4624,14.59152 Z M3.90024,13.1292 L2.34936,13.1292 C1.92744,13.1292 1.584,13.47264 1.584,13.89384 L1.584,14.706 C1.584,15.1272 1.92744,15.47064 2.34936,15.47064 L3.90024,15.47064 C4.32216,15.47064 4.6656,15.1272 4.6656,14.706 L4.6656,13.89384 C4.6656,13.47192 4.32216,13.1292 3.90024,13.1292 L3.90024,13.1292 Z" id="Fill-3" fill="#000000" mask="url(#mask-2)"></path>
                <path d="M2.4624,11.75904 L3.78648,11.75904 L3.78648,11.17512 L2.4624,11.17512 L2.4624,11.75904 Z M4.6656,11.06064 C4.6656,10.63944 4.32216,10.296 3.90024,10.296 L2.34936,10.296 C1.92744,10.296 1.584,10.63944 1.584,11.06064 L1.584,11.8728 C1.584,12.29472 1.92744,12.63744 2.34936,12.63744 L3.90024,12.63744 C4.32216,12.63744 4.6656,12.29472 4.6656,11.8728 L4.6656,11.06064 Z" id="Fill-4" fill="#000000" mask="url(#mask-2)"></path>
                <path d="M2.4624,8.92584 L3.78648,8.92584 L3.78648,8.34192 L2.4624,8.34192 L2.4624,8.92584 Z M4.6656,8.22744 C4.6656,7.80624 4.32216,7.4628 3.90024,7.4628 L2.34936,7.4628 C1.92744,7.4628 1.584,7.80624 1.584,8.22744 L1.584,9.0396 C1.584,9.46152 1.92744,9.80424 2.34936,9.80424 L3.90024,9.80424 C4.32216,9.80424 4.6656,9.46152 4.6656,9.0396 L4.6656,8.22744 Z" id="Fill-5" fill="#000000" mask="url(#mask-2)"></path>
                <path d="M6.06168,11.75904 L7.38504,11.75904 L7.38504,11.17512 L6.06168,11.17512 L6.06168,11.75904 Z M8.26344,11.06064 C8.26344,10.63944 7.92072,10.296 7.4988,10.296 L5.9472,10.296 C5.526,10.296 5.18256,10.63944 5.18256,11.06064 L5.18256,11.8728 C5.18256,12.29472 5.526,12.63744 5.9472,12.63744 L7.4988,12.63744 C7.92072,12.63744 8.26344,12.29472 8.26344,11.8728 L8.26344,11.06064 Z" id="Fill-6" fill="#000000" mask="url(#mask-2)"></path>
                <path d="M6.06168,8.92584 L7.38504,8.92584 L7.38504,8.34192 L6.06168,8.34192 L6.06168,8.92584 Z M8.26344,8.22744 C8.26344,7.80624 7.92072,7.4628 7.4988,7.4628 L5.9472,7.4628 C5.526,7.4628 5.18256,7.80624 5.18256,8.22744 L5.18256,9.0396 C5.18256,9.46152 5.526,9.80424 5.9472,9.80424 L7.4988,9.80424 C7.92072,9.80424 8.26344,9.46152 8.26344,9.0396 L8.26344,8.22744 Z" id="Fill-7" fill="#000000" mask="url(#mask-2)"></path>
                <path d="M2.058624,16.052688 C1.407744,16.052688 0.878544,15.523488 0.878544,14.871888 L0.878544,2.058048 C0.878544,1.407888 1.407024,0.877248 2.058624,0.877248 L11.388384,0.877248 C12.039264,0.877248 12.569184,1.407168 12.569184,2.058048 L12.569184,10.855008 C12.672144,11.234448 12.762864,11.650608 12.843504,12.102048 C13.051584,12.119328 13.249584,12.148128 13.447584,12.178368 L13.447584,2.058048 C13.447584,0.922608 12.524544,0.000288 11.389104,0.000288 L2.058624,0.000288 C0.923904,0.000288 0.000144,0.922608 0.000144,2.058048 L0.000144,14.872608 C0.000144,16.008048 0.923904,16.931088 2.058624,16.931088 L5.891904,16.931088 C5.642784,16.661088 5.436144,16.369488 5.311584,16.052688 L2.058624,16.052688 Z" id="Fill-8" fill="#000000" mask="url(#mask-2)"></path>
                <path d="M5.947272,13.129128 C5.526072,13.129128 5.182632,13.472568 5.182632,13.893768 L5.182632,14.705928 C5.182632,14.805288 5.202792,14.899608 5.237352,14.986008 C5.342472,14.564808 5.699592,13.854168 6.912072,13.603608 C7.163352,13.551768 7.424712,13.525128 7.689672,13.525128 C7.858152,13.525128 8.018712,13.535928 8.172072,13.553208 L8.172072,13.540968 C8.043912,13.297608 7.792632,13.129848 7.498152,13.129848 L5.947272,13.129848 L5.947272,13.129128 Z" id="Fill-9" fill="#000000" mask="url(#mask-2)"></path>
                <path d="M11.8458,9.19728 C11.8566,9.14688 11.86164,9.0936 11.86164,9.0396 L11.86164,8.22744 C11.86164,7.80624 11.51892,7.4628 11.097,7.4628 L9.54684,7.4628 C9.12492,7.4628 8.78148,7.80624 8.78148,8.22744 L8.78148,9.0396 C8.78148,9.19584 8.829,9.34056 8.90892,9.46224 C9.11412,9.09144 9.36468,8.83008 9.6606,8.66736 L9.6606,8.34192 L10.98396,8.34192 L10.98396,8.54928 C11.32524,8.66016 11.6082,8.8812 11.8458,9.19728" id="Fill-10" fill="#000000" mask="url(#mask-2)"></path>
                <path d="M15.123024,19.853136 L10.556064,19.853136 C10.377504,19.753776 9.902304,19.434096 9.672624,18.745776 C9.296064,17.616096 9.149184,17.351856 8.163504,16.584336 C7.881984,16.365456 7.053984,15.720336 6.951744,15.428016 C6.993504,15.403536 7.084944,15.361776 7.267104,15.323616 C7.415424,15.292656 7.566624,15.278256 7.715664,15.278256 C8.362224,15.278256 8.906544,15.568416 9.249984,15.813936 C9.385344,15.909696 9.563184,15.903216 9.710064,15.824016 C9.857664,15.745536 9.946224,15.569856 9.940464,15.403536 C9.864144,13.018176 10.098144,10.704096 10.446624,10.262016 C10.579104,10.423296 10.943424,11.062656 11.272464,13.442976 C11.303424,13.663296 11.502144,13.832496 11.715984,13.821696 L11.909664,13.819536 C12.991824,13.819536 14.911344,13.999536 15.613344,15.206976 C16.282224,16.353936 15.564384,18.742176 15.123024,19.853136 M16.373664,14.764896 C15.708384,13.620816 14.192064,12.977136 12.091104,12.942576 C11.613024,9.781776 10.994544,9.344016 10.448784,9.344016 C10.432944,9.344016 10.390464,9.346176 10.376784,9.346896 C9.245664,9.456336 9.013824,12.169296 9.046944,14.689296 C8.514144,14.453856 7.796304,14.317056 7.090704,14.463936 C6.511824,14.583456 6.173424,14.834736 6.085584,15.212736 C5.926464,15.891696 6.655824,16.522416 7.624944,17.276976 C8.455824,17.924256 8.509824,18.035856 8.839584,19.024416 C9.249984,20.256336 10.242144,20.681136 10.283904,20.698416 C10.337904,20.720016 10.395504,20.732976 10.453104,20.732976 L15.416784,20.732976 C15.589584,20.732976 15.748704,20.628576 15.818544,20.470176 C15.886224,20.314656 17.474544,16.654896 16.373664,14.764896" id="Fill-11" fill="#000000" mask="url(#mask-2)"></path>
            </g>
        </g>
    </g>
</svg>