<?xml version="1.0" encoding="UTF-8"?>
<svg width="20px" height="20px" viewBox="0 0 20 20" version="1.1" xmlns="http://www.w3.org/2000/svg" xmlns:xlink="http://www.w3.org/1999/xlink">
    <title>view-07</title>
    <g id="Automations" stroke="none" stroke-width="1" fill="none" fill-rule="evenodd">
        <g id="view-07" transform="translate(10.000000, 10.000000) scale(-1, 1) rotate(-90.000000) translate(-10.000000, -10.000000) translate(-0.000000, -0.000000)" fill="#4693F7">
            <path d="M1.61074219,18.3892578 L18.3892578,18.3892578 L18.3892578,1.61074219 L1.61074219,1.61074219 L1.61074219,18.3892578 Z M19.1946484,0 L0.805351563,0 C0.360546875,0 0,0.360546875 0,0.805351562 L0,19.1946094 C0,19.6394531 0.360546875,20 0.805351563,20 L19.1946094,20 C19.6394531,20 20,19.6394531 20,19.1946484 L20,0.805351562 C20,0.360546875 19.6394531,0 19.1946484,0 L19.1946484,0 Z" id="Fill-1"></path>
            <polygon id="Fill-4" points="9.65101562 19.2214844 11.2617578 19.2214844 11.2617578 1.22148437 9.65101562 1.22148437"></polygon>
            <polygon id="Fill-5" points="9.80535156 11.0402344 18.8053516 11.0402344 18.8053516 9.42953125 9.80535156 9.42953125"></polygon>
        </g>
    </g>
</svg>