<?xml version="1.0" encoding="UTF-8"?>
<svg width="43px" height="48px" viewBox="0 0 43 48" version="1.1" xmlns="http://www.w3.org/2000/svg" xmlns:xlink="http://www.w3.org/1999/xlink">
    <!-- Generator: sketchtool 62 (101010) - https://sketch.com -->
    <title>FEEE656A-DCE8-4E8A-AED0-3AAA78A1D113</title>
    <desc>Created with sketchtool.</desc>
    <defs>
        <polygon id="path-1" points="0 0.6753 39.4378 0.6753 39.4378 47.9993 0 47.9993"></polygon>
        <polygon id="path-3" points="0 48.3251 42.593 48.3251 42.593 1.0001 0 1.0001"></polygon>
    </defs>
    <g id="Welcome" stroke="none" stroke-width="1" fill="none" fill-rule="evenodd">
        <g id="Login-Qualis-LIMS" transform="translate(-830.000000, -488.000000)">
            <g id="Workflows" transform="translate(830.000000, 487.000000)">
                <g id="Group-3" transform="translate(0.000000, 0.325100)">
                    <mask id="mask-2" fill="white">
                        <use xlink:href="#path-1"></use>
                    </mask>
                    <g id="Clip-2"></g>
                    <path d="M37.8598,44.8453 C37.8598,45.7163 37.1538,46.4223 36.2828,46.4223 C35.4118,46.4223 34.7058,45.7163 34.7058,44.8453 L34.7058,42.4793 C34.7058,42.0433 34.3518,41.6903 33.9168,41.6903 L4.7328,41.6903 L4.7328,8.5623 L12.6208,8.5623 L12.6208,14.0833 C12.6208,14.5193 12.9728,14.8723 13.4088,14.8723 L20.5068,14.8723 L20.5068,17.2393 L13.4088,17.2393 C12.9728,17.2393 12.6208,17.5923 12.6208,18.0273 L12.6208,20.3933 L14.1978,20.3933 L14.1978,18.8163 L28.3948,18.8163 L28.3948,20.3933 L29.9718,20.3933 L29.9718,18.0273 C29.9718,17.5923 29.6198,17.2393 29.1838,17.2393 L22.0858,17.2393 L22.0858,14.8723 L29.1838,14.8723 C29.6198,14.8723 29.9718,14.5193 29.9718,14.0833 L29.9718,8.5623 L37.8598,8.5623 L37.8598,44.8453 Z M3.1548,46.4223 C2.2838,46.4223 1.5778,45.7163 1.5778,44.8453 L1.5778,43.2673 L33.1278,43.2673 L33.1278,44.8453 C33.1268,45.3993 33.2728,45.9433 33.5508,46.4223 L3.1548,46.4223 Z M14.1978,13.2943 L28.3948,13.2943 L28.3948,2.2523 L14.1978,2.2523 L14.1978,13.2943 Z M38.6488,6.9853 L29.9718,6.9853 L29.9718,1.4633 C29.9718,1.0283 29.6198,0.6753 29.1838,0.6753 L13.4088,0.6753 C12.9728,0.6753 12.6208,1.0283 12.6208,1.4633 L12.6208,6.9853 L3.9438,6.9853 C3.5078,6.9853 3.1548,7.3383 3.1548,7.7733 L3.1548,41.6903 L0.7888,41.6903 C0.3528,41.6903 -0.0002,42.0433 -0.0002,42.4793 L-0.0002,44.8453 C-0.0002,46.5873 1.4128,47.9993 3.1548,47.9993 L36.2828,47.9993 C38.0248,47.9993 39.4378,46.5873 39.4378,44.8453 L39.4378,7.7733 C39.4378,7.3383 39.0848,6.9853 38.6488,6.9853 L38.6488,6.9853 Z" id="Fill-1" fill="#1268E3" mask="url(#mask-2)"></path>
                </g>
                <mask id="mask-4" fill="white">
                    <use xlink:href="#path-3"></use>
                </mask>
                <g id="Clip-5"></g>
                <polygon id="Fill-4" fill="#1268E3" mask="url(#mask-4)" points="15.775 5.7321 17.353 5.7321 17.353 4.1551 15.775 4.1551"></polygon>
                <polygon id="Fill-6" fill="#1268E3" mask="url(#mask-4)" points="18.93 5.7321 26.818 5.7321 26.818 4.1551 18.93 4.1551"></polygon>
                <polygon id="Fill-7" fill="#1268E3" mask="url(#mask-4)" points="15.775 8.8881 26.818 8.8881 26.818 7.3101 15.775 7.3101"></polygon>
                <polygon id="Fill-8" fill="#1268E3" mask="url(#mask-4)" points="15.775 12.0431 26.818 12.0431 26.818 10.4651 15.775 10.4651"></polygon>
                <path d="M8.676,28.6061 L18.141,28.6061 L18.141,23.8741 L8.676,23.8741 L8.676,28.6061 Z M8.676,38.0721 L18.141,38.0721 L18.141,33.3391 L8.676,33.3391 L8.676,38.0721 Z M18.93,22.2961 L7.887,22.2961 C7.452,22.2961 7.099,22.6491 7.099,23.0851 L7.099,29.3951 C7.099,29.8301 7.452,30.1841 7.887,30.1841 L12.621,30.1841 L12.621,31.7611 L7.887,31.7611 C7.452,31.7611 7.099,32.1151 7.099,32.5501 L7.099,38.8601 C7.099,39.2951 7.452,39.6491 7.887,39.6491 L18.93,39.6491 C19.366,39.6491 19.719,39.2951 19.719,38.8601 L19.719,32.5501 C19.719,32.1151 19.366,31.7611 18.93,31.7611 L14.198,31.7611 L14.198,30.1841 L18.93,30.1841 C19.366,30.1841 19.719,29.8301 19.719,29.3951 L19.719,23.0851 C19.719,22.6491 19.366,22.2961 18.93,22.2961 L18.93,22.2961 Z" id="Fill-9" fill="#1268E3" mask="url(#mask-4)"></path>
                <polygon id="Fill-10" fill="#1268E3" mask="url(#mask-4)" points="10.253 27.0291 11.831 27.0291 11.831 25.4521 10.253 25.4521"></polygon>
                <polygon id="Fill-11" fill="#1268E3" mask="url(#mask-4)" points="13.409 27.0291 16.564 27.0291 16.564 25.4521 13.409 25.4521"></polygon>
                <polygon id="Fill-12" fill="#1268E3" mask="url(#mask-4)" points="10.253 36.4931 11.831 36.4931 11.831 34.9161 10.253 34.9161"></polygon>
                <polygon id="Fill-13" fill="#1268E3" mask="url(#mask-4)" points="13.409 36.4931 16.564 36.4931 16.564 34.9161 13.409 34.9161"></polygon>
                <path d="M24.451,28.6061 L33.916,28.6061 L33.916,23.8741 L24.451,23.8741 L24.451,28.6061 Z M24.451,38.0721 L33.916,38.0721 L33.916,33.3391 L24.451,33.3391 L24.451,38.0721 Z M23.663,22.2961 C23.227,22.2961 22.873,22.6491 22.873,23.0851 L22.873,29.3951 C22.873,29.8301 23.227,30.1841 23.663,30.1841 L28.395,30.1841 L28.395,31.7611 L23.663,31.7611 C23.227,31.7611 22.873,32.1151 22.873,32.5501 L22.873,38.8601 C22.873,39.2951 23.227,39.6491 23.663,39.6491 L34.705,39.6491 C35.141,39.6491 35.494,39.2951 35.494,38.8601 L35.494,32.5501 C35.494,32.1151 35.141,31.7611 34.705,31.7611 L29.972,31.7611 L29.972,30.1841 L34.705,30.1841 C35.141,30.1841 35.494,29.8301 35.494,29.3951 L35.494,23.0851 C35.494,22.6491 35.141,22.2961 34.705,22.2961 L23.663,22.2961 Z" id="Fill-14" fill="#1268E3" mask="url(#mask-4)"></path>
                <polygon id="Fill-15" fill="#1268E3" mask="url(#mask-4)" points="26.029 27.0291 27.606 27.0291 27.606 25.4521 26.029 25.4521"></polygon>
                <polygon id="Fill-16" fill="#1268E3" mask="url(#mask-4)" points="29.184 27.0291 32.339 27.0291 32.339 25.4521 29.184 25.4521"></polygon>
                <polygon id="Fill-17" fill="#1268E3" mask="url(#mask-4)" points="26.029 36.4931 27.606 36.4931 27.606 34.9161 26.029 34.9161"></polygon>
                <polygon id="Fill-18" fill="#1268E3" mask="url(#mask-4)" points="29.184 36.4931 32.339 36.4931 32.339 34.9161 29.184 34.9161"></polygon>
                <polygon id="Fill-19" fill="#1268E3" mask="url(#mask-4)" points="0 30.1841 1.578 30.1841 1.578 11.2541 0 11.2541"></polygon>
                <polygon id="Fill-20" fill="#1268E3" mask="url(#mask-4)" points="41.015 39.6491 42.592 39.6491 42.592 19.1411 41.015 19.1411"></polygon>
                <polygon id="Fill-21" fill="#1268E3" mask="url(#mask-4)" points="41.015 42.8041 42.592 42.8041 42.592 41.2261 41.015 41.2261"></polygon>
            </g>
        </g>
    </g>
</svg>