<?xml version="1.0" encoding="utf-8"?>
<!-- Generator: Adobe Illustrator 25.2.0, SVG Export Plug-In . SVG Version: 6.00 Build 0)  -->
<svg version="1.1" id="Layer_1" xmlns="http://www.w3.org/2000/svg" xmlns:xlink="http://www.w3.org/1999/xlink" x="0px" y="0px"
	 viewBox="0 0 900 900" style="enable-background:new 0 0 900 900;" xml:space="preserve" fill="currentColor">
<style type="text/css">
	.st0{fill:#FFFFFF;}
</style>
<g>
	<g>
		<path d="M612,327.9c-134.3,0-243.2,109-243.2,243.2s109,243.2,243.2,243.2s243.2-109,243.2-243.2S746.3,327.9,612,327.9z"/>
	</g>
	<g>
		<path d="M287.7,571.2c0-178.8,145.5-324.3,324.3-324.3c13.8,0,27.2,1.1,40.6,2.8v-60.1L507.4,44.3H44.7V855h410.8
			C355.6,799.5,287.7,693.1,287.7,571.2z"/>
	</g>
</g>
<g>
	<polygon class="st0" points="706.7,442.5 572.3,577 519.3,524.2 461.6,582 572.3,692.4 764.5,500.3 	"/>
</g>
</svg>
