<?xml version="1.0" encoding="utf-8"?>
<!-- Generator: Adobe Illustrator 24.1.0, SVG Export Plug-In . SVG Version: 6.00 Build 0)  -->
<svg version="1.1" id="Layer_1" xmlns="http://www.w3.org/2000/svg" xmlns:xlink="http://www.w3.org/1999/xlink" x="0px" y="0px"
	 viewBox="0 0 512 512" style="enable-background:new 0 0 512 512;" xml:space="preserve">
<path d="M404,196.3V34.7C404,15.6,388.4,0,369.2,0H86.8C67.6,0,52,15.6,52,34.7v370.5c0,19.2,15.6,34.7,34.7,34.7H281
	c0-68.9-3.1-64.6-2.8-67.8C224.7,280.4,300,167.4,404,196.3z M148,80h136c8.8,0,16,7.2,16,16s-7.2,16-16,16H148c-8.8,0-16-7.2-16-16
	S139.2,80,148,80z M228,240h-80c-8.8,0-16-7.2-16-16c0-8.8,7.2-16,16-16h80c8.8,0,16,7.2,16,16C244,232.8,236.8,240,228,240z
	 M148,176c-8.8,0-16-7.2-16-16c0-8.8,7.2-16,16-16h136c8.8,0,16,7.2,16,16c0,8.8-7.2,16-16,16H148z M498.5,264.2
	C498.5,264.2,498.5,264.2,498.5,264.2c-0.1-0.1-0.1-0.2-0.1-0.2c-0.3-0.5-0.7-1-1.1-1.4c-0.1-0.1-0.2-0.3-0.4-0.5c0,0,0,0-0.1,0
	c-0.2-0.1-0.3-0.3-0.4-0.5c-0.6-0.5-1.3-0.8-2-1.2c-0.2-0.1-0.4-0.3-0.6-0.3c-0.9-0.3-2-0.5-3-0.5L287,261c-3.2,0-6.2,1.8-7.7,4.7
	c-1.5,2.9-1.3,6.3,0.6,9l40.7,58.4l-11.5,56.7c-0.7,3.4,0.8,7,3.7,9c0.6,0.4,1.3,0.7,1.9,1c2.5,0.9,5.4,0.6,7.7-0.9l28.5-18.9
	l35.3,61.6c1.1,1.8,2.7,3.2,4.6,3.9c0.9,0.3,1.9,0.5,2.9,0.5c3.1,0,6-1.7,7.6-4.4l97.2-168.5C500.1,270.2,500,266.9,498.5,264.2z
	 M349.8,359.6l-0.9,0.6l-18.6,12.3l7.1-35.1l93.1-36.3L349.8,359.6z"/>
</svg>
