<?xml version="1.0" encoding="UTF-8"?>
<svg width="17px" height="22px" viewBox="0 0 17 22" version="1.1" xmlns="http://www.w3.org/2000/svg" xmlns:xlink="http://www.w3.org/1999/xlink">
    <!-- <title>checked</title> -->
    <defs>
        <polygon id="path-1" points="0.38948 0.64415 5.22534987 0.64415 5.22534987 5.39487 0.38948 5.39487"></polygon>
    </defs>
    <g id="Welcome" stroke="none" stroke-width="1" fill="none" fill-rule="evenodd">
        <g id="Icons" transform="translate(-298.000000, -193.000000)">
            <g id="checked" transform="translate(298.000000, 193.000000)">
                <path d="M3.575,17.88085 L14.625,17.88085 L14.625,5.40085 L11.375,5.40085 C11.115,5.40085 10.855,5.20585 10.855,4.88085 L10.855,1.63085 L3.575,1.63085 L3.575,17.88085 Z M15.08,18.85585 L3.055,18.85585 C2.795,18.85585 2.6,18.66085 2.6,18.40085 L2.6,1.17585 C2.6,0.85085 2.795,0.65585 3.055,0.65585 L11.31,0.65585 C11.57,0.65585 11.83,0.85085 11.83,1.17585 L11.83,4.42585 L15.08,4.42585 C15.34,4.42585 15.6,4.62085 15.6,4.94585 L15.6,18.40085 C15.6,18.66085 15.405,18.85585 15.08,18.85585 L15.08,18.85585 Z" id="Fill-1" fill="#000000"></path>
                <g id="Group-5" transform="translate(10.400000, 0.005850)">
                    <mask id="mask-2" fill="white">
                        <use xlink:href="#path-1"></use>
                    </mask>
                    <g id="Clip-4"></g>
                    <path d="M1.43013,4.41987 L3.51013,4.41987 L1.43013,2.33987 L1.43013,4.41987 Z M4.68013,5.39487 L0.91013,5.39487 C0.65013,5.39487 0.38948,5.19987 0.38948,4.87487 L0.38948,1.16987 C0.38948,0.97487 0.52013,0.77987 0.71448,0.71487 C0.97513,0.58487 1.17013,0.64987 1.30013,0.77987 L5.07013,4.54987 C5.20013,4.67987 5.26448,4.87487 5.20013,5.06987 C5.13513,5.26487 4.93948,5.39487 4.68013,5.39487 L4.68013,5.39487 Z" id="Fill-3" fill="#000000" mask="url(#mask-2)"></path>
                </g>
                <path d="M0.975,20.48085 L12.025,20.48085 L12.025,18.85585 L3.055,18.85585 C2.795,18.85585 2.6,18.66085 2.6,18.40085 L2.6,4.23085 L0.975,4.23085 L0.975,20.48085 Z M12.48,21.45585 L0.455,21.45585 C0.195,21.45585 0,21.26085 0,21.00085 L0,3.77585 C0,3.45085 0.195,3.25585 0.455,3.25585 L3.055,3.25585 C3.315,3.25585 3.575,3.45085 3.575,3.77585 L3.575,17.94585 L12.545,17.94585 C12.805,17.94585 13.065,18.14085 13.065,18.46585 L13.065,21.06585 C13,21.26085 12.805,21.45585 12.48,21.45585 L12.48,21.45585 Z" id="Fill-6" fill="#000000"></path>
                <path d="M8.25513,11.51098 C8.12513,11.51098 7.99513,11.44598 7.86513,11.31598 L6.43513,9.69098 C6.24013,9.49598 6.30513,9.17098 6.50013,8.97598 C6.69513,8.78098 7.02013,8.84598 7.21513,9.04098 L8.38513,10.34098 L11.11448,8.13098 C11.31013,7.93598 11.63513,8.00098 11.83013,8.19598 C12.02513,8.39098 11.96013,8.71598 11.76448,8.91098 L8.64513,11.44598 C8.51448,11.44598 8.38513,11.51098 8.25513,11.51098" id="Fill-8" fill="#000000"></path>
            </g>
        </g>
    </g>
</svg>