<?xml version="1.0" encoding="utf-8"?>
<!-- Generator: Adobe Illustrator 24.1.0, SVG Export Plug-In . SVG Version: 6.00 Build 0)  -->
<svg version="1.1" id="Layer_1" xmlns="http://www.w3.org/2000/svg" xmlns:xlink="http://www.w3.org/1999/xlink" x="0px" y="0px"
	 viewBox="0 0 139 173.8" style="enable-background:new 0 0 139 173.8;" xml:space="preserve">
<path d="M69.5,11.7c-31.9,0-57.8,25.9-57.8,57.8s25.9,57.8,57.8,57.8s57.8-25.9,57.8-57.8S101.4,11.7,69.5,11.7z M94.8,90.8
	c-0.9,1.6-2.6,2.5-4.4,2.5c-0.8,0-1.7-0.2-2.5-0.6L67,80.9c-0.1,0-0.1-0.1-0.2-0.1c-0.1-0.1-0.3-0.2-0.4-0.3
	c-0.1-0.1-0.3-0.2-0.4-0.3s-0.2-0.2-0.3-0.3c-0.1-0.1-0.2-0.2-0.3-0.4c-0.1-0.1-0.2-0.3-0.3-0.4c-0.1-0.1-0.2-0.3-0.2-0.4
	c-0.1-0.1-0.1-0.3-0.2-0.5c-0.1-0.1-0.1-0.3-0.1-0.4s-0.1-0.3-0.1-0.5c0-0.2,0-0.3-0.1-0.5c0-0.1,0-0.1,0-0.2V35.7c0-2.8,2.2-5,5-5
	c2.8,0,5,2.2,5,5v37.9L92.9,84C95.3,85.3,96.1,88.4,94.8,90.8z"/>
</svg>
