<?xml version="1.0" encoding="UTF-8"?>
<svg width="17px" height="20px" viewBox="0 0 17 20" version="1.1" xmlns="http://www.w3.org/2000/svg" xmlns:xlink="http://www.w3.org/1999/xlink">
    <!-- <title>Enforce status</title> -->
    <defs>
        <polygon id="path-1" points="0.061368 0.023976 13.07544 0.023976 13.07544 16.559976 0.061368 16.559976"></polygon>
        <polygon id="path-3" points="0 0.234552 9.578856 0.234552 9.578856 10.973592 0 10.973592"></polygon>
    </defs>
    <g id="Welcome" stroke="none" stroke-width="1" fill="none" fill-rule="evenodd">
        <g id="Icons" transform="translate(-298.000000, -622.000000)">
            <g id="Enforce-status" transform="translate(298.000000, 622.000000)">
                <g id="Group-3" transform="translate(2.880000, 2.165592)">
                    <mask id="mask-2" fill="white">
                        <use xlink:href="#path-1"></use>
                    </mask>
                    <g id="Clip-2"></g>
                    <path d="M9.469368,3.599976 L9.469368,1.463976 L11.605368,3.599976 L9.469368,3.599976 Z M12.949368,3.719976 L9.349368,0.119976 C9.325368,0.095976 9.301368,0.071976 9.277368,0.071976 L9.253608,0.071976 C9.229368,0.071976 9.205368,0.047976 9.205368,0.047976 L9.181368,0.047976 C9.157368,0.047976 9.133608,0.023976 9.133608,0.023976 L9.037368,0.023976 L7.453608,0.023976 C7.501368,0.311976 7.525368,0.599976 7.525368,0.887976 L8.581368,0.887976 L8.581368,4.079976 C8.581368,4.319976 8.773608,4.511976 9.013608,4.511976 L12.205368,4.511976 L12.205368,15.743976 L0.925368,15.743976 L0.925368,9.167976 C0.613368,9.023976 0.325368,8.807976 0.061368,8.591976 L0.061368,16.127976 C0.061368,16.367976 0.253368,16.559976 0.493368,16.559976 L12.637368,16.559976 C12.877368,16.559976 13.069368,16.367976 13.069368,16.127976 L13.069368,4.031976 C13.093608,3.911976 13.045368,3.791976 12.949368,3.719976 L12.949368,3.719976 Z" id="Fill-1" fill="#000000" mask="url(#mask-2)"></path>
                </g>
                <g id="Group-6" transform="translate(0.000000, 0.005592)">
                    <mask id="mask-4" fill="white">
                        <use xlink:href="#path-3"></use>
                    </mask>
                    <g id="Clip-5"></g>
                    <path d="M4.377096,6.890952 C4.503816,6.772632 4.630776,6.742872 4.789416,6.742872 C4.948056,6.742872 5.074776,6.802152 5.201736,6.890952 C5.328696,6.979752 5.360376,7.127592 5.360376,7.275672 C5.360376,7.453032 5.297016,7.571352 5.201736,7.660152 C5.074776,7.748952 4.948056,7.807992 4.789416,7.807992 C4.630776,7.807992 4.503816,7.748952 4.377096,7.660152 C4.250136,7.571352 4.218456,7.423512 4.218456,7.275672 C4.218456,7.127592 4.250136,7.009272 4.377096,6.890952 M4.313496,2.601192 C4.377096,2.453352 4.535736,2.394072 4.757736,2.394072 C4.948056,2.394072 5.074776,2.453352 5.201736,2.571432 C5.328696,2.689992 5.360376,2.837832 5.360376,3.044952 C5.360376,3.192792 5.360376,3.429672 5.328696,3.755112 L5.201736,5.470872 C5.170056,5.677992 5.138376,5.855592 5.074776,5.973912 C5.011416,6.091992 4.916376,6.121752 4.789416,6.121752 C4.662456,6.121752 4.567416,6.062472 4.503816,5.944152 C4.440456,5.825832 4.408776,5.677992 4.377096,5.470872 L4.218456,3.725352 C4.186776,3.577512 4.186776,3.399912 4.186776,3.252072 C4.218456,2.956152 4.250136,2.749032 4.313496,2.601192 M6.851016,10.973592 C6.343656,10.736952 5.963016,10.352232 5.772696,9.908472 C5.677416,9.701352 5.645736,9.257592 5.899656,9.257592 C9.578856,9.257592 9.578856,7.068312 9.578856,4.760952 C9.578856,2.245992 9.578856,0.234552 4.789416,0.234552 C-2.4e-05,0.234552 -2.4e-05,2.245992 -2.4e-05,4.760952 C-2.4e-05,7.068312 -2.4e-05,9.257592 3.679176,9.257592 C4.282056,10.263672 5.582376,10.944072 6.851016,10.973592" id="Fill-4" fill="#000000" mask="url(#mask-4)"></path>
                </g>
            </g>
        </g>
    </g>
</svg>