<?xml version="1.0" encoding="UTF-8"?>
<svg width="23px" height="34px" viewBox="0 0 23 34" version="1.1" xmlns="http://www.w3.org/2000/svg" xmlns:xlink="http://www.w3.org/1999/xlink">
    <!-- Generator: sketchtool 62 (101010) - https://sketch.com -->
    <title>2EB5E2CD-25F7-4D38-86C4-AB973D6D1010</title>
    <desc>Created with sketchtool.</desc>
    <defs>
        <polygon id="path-1" points="0.017899262 0 5.99553116 0 5.99553116 6.23767188 0.017899262 6.23767188"></polygon>
    </defs>
    <g id="Welcome" stroke="none" stroke-width="1" fill="none" fill-rule="evenodd">
        <g id="Client-Listing-Attachment-Link" transform="translate(-812.000000, -730.000000)">
            <g id="Group-17" transform="translate(812.000000, 729.500000)">
                <g id="Group-6" transform="translate(0.000000, 0.500000)">
                    <path d="M1.15442177,32.864524 L21.7956063,32.864524 L21.7956063,5.90562292 L17.2254808,1.13818542 L1.15442177,1.13818542 L1.15442177,32.864524 Z M22.3363185,33.9999823 L0.606665314,33.9999823 C0.307665314,33.9999823 0.0656136531,33.7479042 0.0656136531,33.4355292 L0.0656136531,0.566826042 C0.0656136531,0.25489375 0.307665314,0.00237291667 0.606665314,0.00237291667 L17.4416469,0.00237291667 C17.5881339,0.00237291667 17.7218055,0.06258125 17.8235657,0.168388542 L22.711872,5.26821146 C22.813717,5.37472708 22.8711277,5.52073229 22.8711277,5.66664896 L22.8711277,33.4289771 C22.8773701,33.7479042 22.6356579,33.9999823 22.3363185,33.9999823 L22.3363185,33.9999823 Z" id="Fill-1" fill="#E45151"></path>
                    <g id="Group-5" transform="translate(16.889299, 0.000000)">
                        <mask id="mask-2" fill="white">
                            <use xlink:href="#path-1"></use>
                        </mask>
                        <g id="Clip-4"></g>
                        <path d="M1.10000258,5.10221354 L4.13583284,5.10221354 L1.10000258,1.93507813 L1.10000258,5.10221354 Z M5.44700258,6.23767187 L0.558950923,6.23767187 C0.259950923,6.23767187 0.017899262,5.98559375 0.017899262,5.67321875 L0.017899262,0.56684375 C0.017899262,0.341328125 0.151485978,0.129005208 0.355515498,0.0425 C0.558950923,-0.0439166667 0.794297786,0.002390625 0.946810701,0.16840625 L5.83520185,5.26822917 C5.98805424,5.42769271 6.03872214,5.67321875 5.95622768,5.88598437 C5.86074797,6.09830729 5.66350812,6.23767187 5.44700258,6.23767187 L5.44700258,6.23767187 Z" id="Fill-3" fill="#E45151" mask="url(#mask-2)"></path>
                    </g>
                </g>
                <g id="Group-16" transform="translate(0.000000, 6.500000)" fill="#E45151">
                    <path d="M1.15868889,26.8779 L21.8763222,26.8779 L21.8763222,17.9207875 L1.15868889,17.9207875 L1.15868889,26.8779 Z M22.419037,28 L0.608903704,28 C0.308796296,28 0.0658481481,27.7508 0.0658481481,27.4421875 L0.0658481481,17.362975 C0.0658481481,17.054625 0.308796296,16.805425 0.608903704,16.805425 L22.4126481,16.805425 C22.7128407,16.805425 22.9558271,17.054625 22.9558271,17.362975 L22.9558271,27.4421875 C22.9620926,27.7508 22.7194852,28 22.419037,28 L22.419037,28 Z" id="Fill-7"></path>
                    <path d="M3.87992111,25.7622575 C3.57972852,25.7622575 3.33686556,25.5130575 3.33686556,25.204795 L3.33686556,19.6006825 C3.33686556,19.29207 3.57972852,19.04287 3.87992111,19.04287 C4.18036926,19.04287 4.42297667,19.29207 4.42297667,19.6006825 L4.42297667,25.19797 C4.42928037,25.5062325 4.18036926,25.7622575 3.87992111,25.7622575" id="Fill-9"></path>
                    <path d="M19.1480281,20.1581538 L15.877343,20.1581538 C15.5772356,20.1581538 15.3342874,19.9093037 15.3342874,19.6006912 C15.3342874,19.2920787 15.5772356,19.0428787 15.877343,19.0428787 L19.1480281,19.0428787 C19.4484763,19.0428787 19.6910837,19.2920787 19.6910837,19.6006912 C19.6910837,19.9093037 19.4484763,20.1581538 19.1480281,20.1581538" id="Fill-10"></path>
                    <path d="M19.1480281,22.9605425 L15.877343,22.9605425 C15.5772356,22.9605425 15.3342874,22.7109925 15.3342874,22.40273 C15.3342874,22.0941175 15.5772356,21.8449175 15.877343,21.8449175 L19.1480281,21.8449175 C19.4484763,21.8449175 19.6910837,22.0941175 19.6910837,22.40273 C19.6910837,22.7109925 19.4484763,22.9605425 19.1480281,22.9605425" id="Fill-11"></path>
                    <path d="M15.8773856,25.7622575 C15.5772781,25.7622575 15.33433,25.5130575 15.33433,25.204795 L15.33433,19.6006825 C15.33433,19.29207 15.5772781,19.04287 15.8773856,19.04287 C16.177493,19.04287 16.4204411,19.29207 16.4204411,19.6006825 L16.4204411,25.19797 C16.4204411,25.5062325 16.177493,25.7622575 15.8773856,25.7622575" id="Fill-12"></path>
                    <path d="M17.0080911,9.5672325 C16.8420652,9.803745 16.4780689,9.81022 16.3502911,9.81022 C16.0626207,9.81022 15.9539244,9.6328575 15.5067022,9.291695 C15.8709541,9.2459325 16.2157837,9.2326325 16.4906763,9.2326325 C16.9761467,9.2326325 17.0656763,9.3050825 17.1295652,9.34437 C17.1229207,9.3771825 17.0909763,9.4492825 17.0080911,9.5672325 M9.99999111,9.8297325 C10.5493504,8.49772 11.0667652,7.0279825 11.4500985,5.662895 C12.057043,6.772045 12.7917652,7.8545075 13.5264874,8.7209325 C12.3701837,8.9899075 11.1372985,9.3836575 9.99999111,9.8297325 M11.1243504,0.9973075 C11.1499911,0.9908325 11.6929615,1.60132 11.1755467,2.7691825 C10.4025763,1.9683825 11.0667652,1.01717 11.1243504,0.9973075 M6.66541704,13.6291575 C6.40986148,13.4322825 6.42885778,13.3010325 6.42885778,13.2487075 C6.46080222,12.940095 6.93366519,12.3955825 8.09627259,11.7393325 C7.22116519,13.3864325 6.74830222,13.60317 6.66541704,13.6291575 M17.9601207,8.9113325 C17.749117,8.49772 17.2317022,8.29437 16.3820652,8.29437 C15.8837319,8.29437 15.2704837,8.359995 14.5550133,8.491245 C13.5584319,7.4217325 12.523517,5.85977 11.7887948,4.3244075 C11.9036244,3.83222 12.0124059,3.3335575 12.0952911,2.8348075 C12.1911244,2.250745 12.3062948,1.5814575 12.1848207,0.9908325 C12.13388,0.75467 11.9994578,0.544845 11.84638,0.367395 C11.7119578,0.21672 11.5269356,0.0064575 11.3097133,0.0064575 C11.194543,0.0064575 10.881743,0.0591325 10.7602689,0.09842 C10.4472133,0.2033325 10.2811022,0.4528825 10.1470207,0.76762 C9.76368741,1.679895 10.2874911,3.228295 10.8305467,4.42932 C10.3639874,6.2992825 9.59135778,8.5370075 8.77340963,10.3547325 C6.71635778,11.31312 5.62394296,12.2510325 5.52172074,13.15027 C5.48347259,13.478395 5.56005407,13.9572825 6.12866519,14.383845 C6.2820837,14.5020575 6.46710593,14.5612075 6.65246889,14.5612075 C7.12533185,14.5612075 7.61080222,14.193445 8.16646519,13.39947 C8.56913556,12.822145 9.00971333,12.034645 9.46358,11.056745 C10.9199911,10.4138825 12.7149281,9.8297325 14.2608689,9.5016075 C15.1170652,10.33522 15.8900356,10.7614325 16.5482615,10.7614325 C17.0337319,10.7614325 17.4490096,10.531745 17.7558467,10.1055325 C18.0685615,9.659195 18.1387541,9.2588825 17.9601207,8.9113325" id="Fill-13"></path>
                    <path d="M4.42929741,22.40273 L5.52171222,22.40273 C6.12235296,22.40273 6.61421222,21.8972425 6.61421222,21.28063 C6.61421222,20.6636675 6.12235296,20.15818 5.52171222,20.15818 L4.42929741,20.15818 L4.42929741,22.40273 Z M5.51540852,23.518355 L3.87993815,23.518355 C3.57974556,23.518355 3.33688259,23.268805 3.33688259,22.9605425 L3.33688259,19.6007175 C3.33688259,19.2920175 3.57974556,19.042905 3.87993815,19.042905 L5.51540852,19.042905 C6.71634926,19.042905 7.69396558,20.046705 7.69396558,21.28063 C7.70032333,22.5141175 6.72265296,23.518355 5.51540852,23.518355 L5.51540852,23.518355 Z" id="Fill-14"></path>
                    <path d="M10.4218793,20.1581537 L10.4218793,24.6401662 C11.62282,24.6401662 12.6000644,23.6362787 12.6000644,22.4027037 C12.6000644,21.1692162 11.6291237,20.1581537 10.4218793,20.1581537 M10.4218793,25.7622662 L9.8788237,25.7622662 C9.57829037,25.7622662 9.33576815,25.5130662 9.33576815,25.2048037 L9.33576815,19.6006912 C9.33576815,19.2920787 9.57829037,19.0428787 9.8788237,19.0428787 L10.4218793,19.0428787 C12.22312,19.0428787 13.6925644,20.5519037 13.6925644,22.4027037 C13.6925644,24.2532412 12.2297644,25.7622662 10.4218793,25.7622662" id="Fill-15"></path>
                </g>
            </g>
        </g>
    </g>
</svg>