<?xml version="1.0" encoding="UTF-8"?>
<svg width="43px" height="43px" viewBox="0 0 43 43" version="1.1" xmlns="http://www.w3.org/2000/svg" xmlns:xlink="http://www.w3.org/1999/xlink">
    <!-- Generator: sketchtool 62 (101010) - https://sketch.com -->
    <title>CA3781CE-C138-4280-AA64-5E9F976B0441</title>
    <desc>Created with sketchtool.</desc>
    <defs>
        <polygon id="path-1" points="0 43 42.667 43 42.667 0.333 0 0.333"></polygon>
    </defs>
    <g id="Welcome" stroke="none" stroke-width="1" fill="none" fill-rule="evenodd">
        <g id="Login-Qualis-LIMS" transform="translate(-829.000000, -294.000000)">
            <g id="Instrument-Data" transform="translate(829.000000, 293.000000)">
                <polygon id="Fill-1" fill="#1268E3" points="17.778 9.5336 24.889 9.5336 24.889 8.1116 17.778 8.1116"></polygon>
                <polygon id="Fill-2" fill="#1268E3" points="17.778 12.3776 24.889 12.3776 24.889 10.9556 17.778 10.9556"></polygon>
                <g id="Group-20" transform="translate(0.000000, 0.666600)">
                    <path d="M22.0442,41.3405 L22.0442,37.1335 L37.6892,32.5695 L37.6892,36.7785 L22.0442,41.3405 Z M4.9782,32.5695 L20.6222,37.1335 L20.6222,41.3405 L4.9782,36.7785 L4.9782,32.5695 Z M20.6222,27.5925 L20.6222,31.3275 L18.9912,29.6965 L17.9862,30.7025 L20.8302,33.5475 C20.9692,33.6865 21.1512,33.7555 21.3332,33.7555 C21.5152,33.7555 21.6972,33.6865 21.8362,33.5475 L24.6812,30.7025 L23.6752,29.6965 L22.0442,31.3275 L22.0442,27.5925 L35.8602,31.6215 L21.3332,35.8595 L6.8062,31.6215 L20.6222,27.5925 Z M16.3562,1.7555 L22.0442,1.7555 L22.0442,5.3115 C22.0442,5.7035 22.3622,6.0225 22.7552,6.0225 L26.3112,6.0225 L26.3112,15.9775 L16.3562,15.9775 L16.3562,1.7555 Z M23.4672,2.7605 L25.3062,4.5995 L23.4672,4.5995 L23.4672,2.7605 Z M39.1102,37.3115 L39.1102,31.6215 C39.1102,31.3065 38.9022,31.0275 38.5992,30.9395 L22.0442,26.1115 L22.0442,17.4005 L27.0222,17.4005 C27.4152,17.4005 27.7332,17.0815 27.7332,16.6895 L27.7332,5.3115 C27.7332,5.1225 27.6582,4.9415 27.5242,4.8085 L23.2582,0.5415 C23.1252,0.4075 22.9442,0.3335 22.7552,0.3335 L15.6442,0.3335 C15.2512,0.3335 14.9332,0.6525 14.9332,1.0445 L14.9332,16.6895 C14.9332,17.0815 15.2512,17.4005 15.6442,17.4005 L20.6222,17.4005 L20.6222,26.1115 L4.0672,30.9395 C3.7642,31.0275 3.5552,31.3065 3.5552,31.6215 L3.5552,37.3115 C3.5552,37.6265 3.7642,37.9045 4.0672,37.9935 L21.1342,42.9715 C21.1992,42.9905 21.2662,42.9995 21.3332,42.9995 C21.4002,42.9995 21.4672,42.9905 21.5322,42.9715 L38.5992,37.9935 C38.9022,37.9045 39.1102,37.6265 39.1102,37.3115 L39.1102,37.3115 Z" id="Fill-3" fill="#1268E3"></path>
                    <mask id="mask-2" fill="white">
                        <use xlink:href="#path-1"></use>
                    </mask>
                    <g id="Clip-6"></g>
                    <polygon id="Fill-5" fill="#1268E3" mask="url(#mask-2)" points="17.778 6.022 20.623 6.022 20.623 4.6 17.778 4.6"></polygon>
                    <path d="M1.4222,1.7555 L7.1112,1.7555 L7.1112,5.3115 C7.1112,5.7035 7.4292,6.0225 7.8222,6.0225 L11.3782,6.0225 L11.3782,15.9775 L1.4222,15.9775 L1.4222,1.7555 Z M8.5332,2.7605 L10.3722,4.5995 L8.5332,4.5995 L8.5332,2.7605 Z M0.7112,17.4005 L5.6892,17.4005 C5.6892,19.3605 7.2842,20.9555 9.2442,20.9555 L11.3782,20.9555 C12.5542,20.9555 13.5112,21.9125 13.5112,23.0885 L13.5112,24.2165 L11.8802,22.5865 L10.8752,23.5915 L13.7192,26.4365 C13.8582,26.5745 14.0402,26.6445 14.2222,26.6445 C14.4042,26.6445 14.5862,26.5745 14.7252,26.4365 L17.5692,23.5915 L16.5642,22.5865 L14.9332,24.2165 L14.9332,23.0885 C14.9332,21.1285 13.3382,19.5335 11.3782,19.5335 L9.2442,19.5335 C8.0682,19.5335 7.1112,18.5765 7.1112,17.4005 L12.0892,17.4005 C12.4822,17.4005 12.8002,17.0815 12.8002,16.6895 L12.8002,5.3115 C12.8002,5.1225 12.7252,4.9415 12.5912,4.8085 L8.3252,0.5415 C8.1922,0.4075 8.0112,0.3335 7.8222,0.3335 L0.7112,0.3335 C0.3182,0.3335 0.0002,0.6515 0.0002,1.0445 L0.0002,16.6895 C0.0002,17.0815 0.3182,17.4005 0.7112,17.4005 L0.7112,17.4005 Z" id="Fill-7" fill="#1268E3" mask="url(#mask-2)"></path>
                    <polygon id="Fill-8" fill="#1268E3" mask="url(#mask-2)" points="2.845 8.867 9.956 8.867 9.956 7.445 2.845 7.445"></polygon>
                    <polygon id="Fill-9" fill="#1268E3" mask="url(#mask-2)" points="2.845 11.711 9.956 11.711 9.956 10.289 2.845 10.289"></polygon>
                    <polygon id="Fill-10" fill="#1268E3" mask="url(#mask-2)" points="2.845 14.555 9.956 14.555 9.956 13.133 2.845 13.133"></polygon>
                    <polygon id="Fill-11" fill="#1268E3" mask="url(#mask-2)" points="2.845 6.022 5.689 6.022 5.689 4.6 2.845 4.6"></polygon>
                    <path d="M31.2894,15.9777 L31.2894,1.7557 L36.9774,1.7557 L36.9774,5.3107 C36.9774,5.7037 37.2954,6.0217 37.6884,6.0217 L41.2444,6.0217 L41.2444,15.9777 L31.2894,15.9777 Z M38.3994,2.7607 L40.2384,4.5997 L38.3994,4.5997 L38.3994,2.7607 Z M42.6664,16.6887 L42.6664,5.3107 C42.6664,5.1227 42.5924,4.9417 42.4584,4.8087 L38.1914,0.5417 C38.0594,0.4077 37.8784,0.3327 37.6884,0.3327 L30.5774,0.3327 C30.1854,0.3327 29.8664,0.6517 29.8664,1.0447 L29.8664,16.6887 C29.8664,17.0817 30.1854,17.3997 30.5774,17.3997 L35.5564,17.3997 C35.5564,18.5767 34.5984,19.5337 33.4224,19.5337 L31.2894,19.5337 C29.3284,19.5337 27.7334,21.1287 27.7334,23.0887 L27.7334,24.2167 L26.1024,22.5867 L25.0974,23.5917 L27.9414,26.4357 C28.0804,26.5747 28.2624,26.6447 28.4444,26.6447 C28.6264,26.6447 28.8094,26.5747 28.9474,26.4357 L31.7914,23.5917 L30.7864,22.5867 L29.1554,24.2167 L29.1554,23.0887 C29.1554,21.9127 30.1124,20.9557 31.2894,20.9557 L33.4224,20.9557 C35.3834,20.9557 36.9774,19.3607 36.9774,17.3997 L41.9554,17.3997 C42.3494,17.3997 42.6664,17.0817 42.6664,16.6887 L42.6664,16.6887 Z" id="Fill-12" fill="#1268E3" mask="url(#mask-2)"></path>
                    <polygon id="Fill-13" fill="#1268E3" mask="url(#mask-2)" points="32.711 8.867 39.822 8.867 39.822 7.445 32.711 7.445"></polygon>
                    <polygon id="Fill-14" fill="#1268E3" mask="url(#mask-2)" points="32.711 11.711 39.822 11.711 39.822 10.289 32.711 10.289"></polygon>
                    <polygon id="Fill-15" fill="#1268E3" mask="url(#mask-2)" points="32.711 14.555 39.822 14.555 39.822 13.133 32.711 13.133"></polygon>
                    <polygon id="Fill-16" fill="#1268E3" mask="url(#mask-2)" points="32.711 6.022 35.556 6.022 35.556 4.6 32.711 4.6"></polygon>
                    <polygon id="Fill-17" fill="#1268E3" mask="url(#mask-2)" points="17.778 14.555 19.2 14.555 19.2 13.133 17.778 13.133"></polygon>
                    <polygon id="Fill-18" fill="#1268E3" mask="url(#mask-2)" points="20.622 14.555 22.044 14.555 22.044 13.133 20.622 13.133"></polygon>
                    <polygon id="Fill-19" fill="#1268E3" mask="url(#mask-2)" points="23.467 14.555 24.889 14.555 24.889 13.133 23.467 13.133"></polygon>
                </g>
            </g>
        </g>
    </g>
</svg>