<?xml version="1.0" encoding="UTF-8"?>
<svg width="14px" height="20px" viewBox="0 0 14 20" version="1.1" xmlns="http://www.w3.org/2000/svg" xmlns:xlink="http://www.w3.org/1999/xlink">
    <!-- Generator: sketchtool 62 (101010) - https://sketch.com -->
    <title>F13FB996-0F69-44E0-9E52-61055A3808FD</title>
    <desc>Created with sketchtool.</desc>
    <defs>
        <polygon id="path-1" points="0 0.8711 13.9667 0.8711 13.9667 20 0 20"></polygon>
    </defs>
    <g id="Welcome" stroke="none" stroke-width="1" fill="none" fill-rule="evenodd">
        <g id="Login-Qualis-LIMS" transform="translate(-158.000000, -544.000000)">
            <g id="Group-6" transform="translate(158.000000, 543.000000)">
                <path d="M6.9834,15.3594 C7.2934,15.3594 7.5444,15.1084 7.5444,14.7984 L7.5444,12.4774 C7.5444,12.1684 7.2934,11.9174 6.9834,11.9174 C6.6734,11.9174 6.4224,12.1684 6.4224,12.4774 L6.4224,14.7984 C6.4224,15.1084 6.6734,15.3594 6.9834,15.3594" id="Fill-1" fill="#97A0AF"></path>
                <g id="Group-5" transform="translate(0.000000, 0.129000)">
                    <mask id="mask-2" fill="white">
                        <use xlink:href="#path-1"></use>
                    </mask>
                    <g id="Clip-4"></g>
                    <path d="M12.8457,14.7461 C12.8457,17.0241 10.9917,18.8791 8.7117,18.8791 L5.2547,18.8791 C2.9747,18.8791 1.1207,17.0241 1.1207,14.7461 L1.1207,8.1391 L12.8457,8.1391 L12.8457,14.7461 Z M4.3337,4.2881 C4.3337,3.0221 5.5227,1.9921 6.9837,1.9921 C8.4447,1.9921 9.6327,3.0221 9.6327,4.2881 L9.6327,7.0181 L4.3337,7.0181 L4.3337,4.2881 Z M13.4067,7.0181 L10.7537,7.0181 L10.7537,4.2881 C10.7537,2.4041 9.0627,0.8711 6.9837,0.8711 C4.9047,0.8711 3.2127,2.4041 3.2127,4.2881 L3.2127,7.0181 L0.5607,7.0181 C0.2507,7.0181 -0.0003,7.2691 -0.0003,7.5791 L-0.0003,14.7461 C-0.0003,17.6421 2.3567,20.0001 5.2547,20.0001 L8.7127,20.0001 C11.6097,20.0001 13.9667,17.6421 13.9667,14.7461 L13.9667,7.5791 C13.9667,7.2691 13.7157,7.0181 13.4067,7.0181 L13.4067,7.0181 Z" id="Fill-3" fill="#97A0AF" mask="url(#mask-2)"></path>
                </g>
            </g>
        </g>
    </g>
</svg>