<svg id="Capa_1" enable-background="new 0 0 512 512" height="512" viewBox="0 0 512 512" fill = "currentColor" width="512" xmlns="http://www.w3.org/2000/svg"><g><path d="m497 482h-16v-277c0-8.284-6.716-15-15-15h-100c-8.284 0-15 6.716-15 15v277h-30v-197c0-8.284-6.716-15-15-15h-100c-8.284 0-15 6.716-15 15v197h-30v-117c0-8.284-6.716-15-15-15h-100c-8.284 0-15 6.716-15 15v117h-16c-8.284 0-15 6.716-15 15s6.716 15 15 15h482c8.284 0 15-6.716 15-15s-6.716-15-15-15z"/><circle cx="96" cy="200" r="40"/><circle cx="256" cy="120" r="40"/><path d="m46 320h100c8.284 0 15-6.716 15-15v-20c0-14.177-5.394-27.117-14.234-36.88-12.766 13.46-30.795 21.88-50.766 21.88s-38-8.42-50.766-21.88c-8.84 9.763-14.234 22.703-14.234 36.88v20c0 8.284 6.716 15 15 15z"/><path d="m206 240h100c8.284 0 15-6.716 15-15v-20c0-14.177-5.394-27.117-14.234-36.88-12.766 13.46-30.795 21.88-50.766 21.88s-38-8.42-50.766-21.88c-8.84 9.763-14.234 22.703-14.234 36.88v20c0 8.284 6.716 15 15 15z"/><path d="m366 160h100c8.284 0 15-6.716 15-15v-20c0-14.177-5.394-27.117-14.234-36.88-12.766 13.46-30.795 21.88-50.766 21.88s-38-8.42-50.766-21.88c-8.84 9.763-14.234 22.703-14.234 36.88v20c0 8.284 6.716 15 15 15z"/><circle cx="416" cy="40" r="40"/></g></svg>