<?xml version="1.0" encoding="UTF-8"?>
<svg width="17px" height="16px" viewBox="0 0 17 16" version="1.1" xmlns="http://www.w3.org/2000/svg" xmlns:xlink="http://www.w3.org/1999/xlink">
    <!-- <title>print-barcode</title> -->
    <defs>
        <polygon id="path-1" points="7.2e-05 3.6e-05 16.18236 3.6e-05 16.18236 15.48 7.2e-05 15.48"></polygon>
    </defs>
    <g id="Welcome" stroke="none" stroke-width="1" fill="none" fill-rule="evenodd">
        <g id="Icons" transform="translate(-298.000000, -599.000000)">
            <g id="print-barcode" transform="translate(298.000000, 599.000000)">
                <mask id="mask-2" fill="white">
                    <use xlink:href="#path-1"></use>
                </mask>
                <g id="Clip-2"></g>
                <path d="M13.752072,5.976036 C13.752072,6.228036 13.536072,6.444036 13.283892,6.444036 C13.032072,6.444036 12.816072,6.228036 12.816072,5.976036 C12.816072,5.724036 13.032072,5.508036 13.283892,5.508036 C13.553892,5.508036 13.752072,5.706036 13.752072,5.976036 L13.752072,5.976036 Z M11.880072,5.976036 C11.880072,6.228036 11.663892,6.444036 11.412072,6.444036 C11.160072,6.444036 10.943892,6.228036 10.943892,5.976036 C10.943892,5.724036 11.160072,5.508036 11.412072,5.508036 C11.663892,5.508036 11.880072,5.706036 11.880072,5.976036 L11.880072,5.976036 Z M15.083892,10.224036 C15.083892,10.440036 14.903892,10.602036 14.706072,10.602036 L14.327892,10.602036 L14.327892,8.712036 L1.908072,8.712036 L1.908072,10.602036 L1.530072,10.602036 C1.313892,10.602036 1.152072,10.422036 1.152072,10.224036 L1.152072,4.554036 C1.152072,4.338036 1.332072,4.176036 1.530072,4.176036 L14.723892,4.176036 C14.940072,4.176036 15.102072,4.356036 15.102072,4.554036 L15.102072,10.224036 L15.083892,10.224036 Z M12.186072,12.887856 L13.212072,11.862036 L12.186072,12.887856 Z M10.692072,14.382036 L9.972072,14.382036 L9.630072,14.382036 L10.367892,14.310036 L10.367892,9.828036 L12.150072,9.828036 L12.150072,12.906036 L10.692072,14.382036 Z M2.988072,14.382036 L3.726072,14.382036 L3.726072,9.828036 L2.988072,9.828036 L2.988072,14.382036 Z M5.202072,14.382036 L5.706072,14.382036 L5.706072,9.828036 L5.202072,9.828036 L5.202072,14.382036 Z M6.389892,14.382036 L6.893892,14.382036 L6.893892,9.828036 L6.389892,9.828036 L6.389892,14.382036 Z M7.235892,14.382036 L8.513892,14.382036 L8.513892,9.828036 L7.235892,9.828036 L7.235892,14.382036 Z M9.036072,14.382036 L9.540072,14.382036 L9.540072,9.828036 L9.036072,9.828036 L9.036072,14.382036 Z M3.383892,3.060036 L12.815892,3.060036 L12.815892,0.936036 L3.383892,0.936036 L3.383892,3.060036 Z M14.706072,3.060036 L13.770072,3.060036 L13.770072,0.936036 L13.770072,0.792036 L13.770072,3.6e-05 L2.448072,3.6e-05 L2.448072,0.792036 L2.448072,0.936036 L2.448072,3.060036 L1.512072,3.060036 C0.666072,3.060036 7.2e-05,3.726036 7.2e-05,4.554036 L7.2e-05,10.206036 C7.2e-05,11.034036 0.666072,11.700036 1.493892,11.700036 L1.872072,11.700036 L1.872072,15.480036 L11.160072,15.480036 L14.310072,12.330036 L14.310072,11.717856 L14.687892,11.717856 C15.516072,11.717856 16.182072,11.052036 16.182072,10.224036 L16.182072,4.554036 C16.200072,3.726036 15.533892,3.060036 14.706072,3.060036 L14.706072,3.060036 Z" id="Fill-1" fill="#000000" mask="url(#mask-2)"></path>
            </g>
        </g>
    </g>
</svg>