<svg height="512pt" fill="#FFF" viewBox="-53 0 512 512.00089" width="512pt" xmlns="http://www.w3.org/2000/svg"><path d="m386 86.683594c-94.511719 0-166.894531-78.714844-168.113281-80.054688-7.914063-8.820312-21.789063-8.855468-29.761719-.007812-.722656.796875-73.285156 80.0625-168.125 80.0625-11.046875 0-20 8.953125-20 20 0 175.78125 35.453125 327.863281 194.417969 403.382812 5.429687 2.578125 11.734375 2.578125 17.164062 0 159.324219-75.691406 194.417969-228.296875 194.417969-403.382812 0-11.046875-8.953125-20-20-20zm-183 383.019531c-130.273438-66.652344-160.882812-196.457031-162.878906-343.960937 76.65625-7.160157 136.347656-53.351563 162.878906-77.648438 26.53125 24.296875 86.226562 70.488281 162.878906 77.648438-1.996094 147.535156-32.621094 277.316406-162.878906 343.960937zm-20.539062-194.222656 81.398437-81.398438c7.808594-7.808593 20.472656-7.8125 28.28125 0 7.8125 7.8125 7.8125 20.472657.003906 28.285157l-95.539062 95.539062c-7.808594 7.808594-20.476563 7.804688-28.285157 0l-54.460937-54.460938c-7.8125-7.8125-7.8125-20.476562 0-28.285156 7.808594-7.8125 20.472656-7.8125 28.285156 0zm0 0"/></svg>