<?xml version="1.0" encoding="UTF-8"?>
<svg width="18px" height="17px" viewBox="0 0 18 17" version="1.1" xmlns="http://www.w3.org/2000/svg" xmlns:xlink="http://www.w3.org/1999/xlink">
    <!-- <title>register</title> -->
    <g id="Welcome" stroke="currentColor" stroke-width="1" fill="none" fill-rule="evenodd">
        <g id="Icons" transform="translate(-298.000000, -553.000000)" fill="#000000">
            <g id="register" transform="translate(298.000000, 553.000000)">
                <path  d="M8.17996,5.1522 L3.59996,5.1522 C3.31996,5.1522 3.09996,5.3722 3.09996,5.6522 C3.09996,5.9322 3.31996,6.1522 3.59996,6.1522 L8.17996,6.1522 C8.45996,6.1522 8.67996,5.9322 8.67996,5.6522 C8.67996,5.3722 8.45996,5.1522 8.17996,5.1522" id="Fill-1"></path>
                <path  d="M3.59998,9.61216 L6.61998,9.61216 C6.89998,9.61216 7.11998,9.39216 7.11998,9.11216 C7.11998,8.83216 6.89998,8.61216 6.61998,8.61216 L3.59998,8.61216 C3.31998,8.61216 3.09998,8.83216 3.09998,9.11216 C3.09998,9.39216 3.31998,9.61216 3.59998,9.61216" id="Fill-3"></path>
                <path  d="M3.59998,13.09224 L11.65998,13.09224 C11.93998,13.09224 12.15998,12.87204 12.15998,12.59224 C12.15998,12.31224 11.93998,12.09224 11.65998,12.09224 L3.59998,12.09224 C3.31998,12.09224 3.09998,12.31224 3.09998,12.59224 C3.09998,12.87204 3.31998,13.09224 3.59998,13.09224" id="Fill-5"></path>
                <path  d="M14.90008,8.71216 C14.62008,8.71216 14.40008,8.93216 14.40008,9.21216 L14.40008,14.53216 C14.40008,15.25216 13.82008,15.83216 13.10008,15.83216 L2.30008,15.83216 C1.57988,15.83216 1.00008,15.25216 1.00008,14.53216 L1.00008,3.17216 C1.00008,2.45216 1.57988,1.87216 2.30008,1.87216 L11.07988,1.87216 C11.36008,1.87216 11.57988,1.65216 11.57988,1.37216 C11.57988,1.09216 11.36008,0.87216 11.07988,0.87216 L2.30008,0.87216 C1.04008,0.87216 8e-05,1.91216 8e-05,3.17216 L8e-05,14.53216 C8e-05,15.79216 1.04008,16.83216 2.30008,16.83216 L13.10008,16.83216 C14.36008,16.83216 15.40008,15.79216 15.40008,14.53216 L15.40008,9.21216 C15.40008,8.93216 15.17988,8.71216 14.90008,8.71216" id="Fill-7"></path>
                <path  d="M16.07996,3.09214 L14.63996,1.97214 L15.31996,1.09214 L16.75996,2.21214 L16.07996,3.09214 Z M9.73996,9.71214 L9.80016,8.85214 L10.55996,9.43214 L9.73996,9.71214 Z M14.01996,2.75214 L15.45996,3.87214 L11.51996,8.91214 L10.07996,7.79214 L14.01996,2.75214 Z M17.51996,1.51214 L15.80016,0.17214 C15.61996,0.03214 15.40016,-0.02786 15.20016,0.01214 C14.97996,0.03214 14.77996,0.15214 14.63996,0.33214 L13.53996,1.75214 L8.97996,7.57214 L8.97996,7.59214 L8.95996,7.61214 C8.93996,7.63214 8.91996,7.67214 8.91996,7.69214 C8.91996,7.71214 8.91996,7.71214 8.89996,7.73214 C8.87996,7.77214 8.87996,7.81214 8.87996,7.85214 L8.67996,10.39214 C8.65996,10.55214 8.73996,10.71214 8.87996,10.83214 C8.95996,10.89214 9.07996,10.93214 9.17996,10.93214 C9.23996,10.93214 9.27996,10.93214 9.33996,10.91214 L11.75996,10.11214 C11.80016,10.09214 11.83996,10.07214 11.85996,10.05214 C11.87996,10.05214 11.87996,10.03214 11.87996,10.03214 C11.90016,10.01214 11.91996,9.99214 11.93996,9.97214 L11.95996,9.95214 L11.95996,9.93214 L17.61996,2.69214 C17.93996,2.33214 17.87996,1.79214 17.51996,1.51214 L17.51996,1.51214 Z" id="Fill-9"></path>
            </g>
        </g>
    </g>
</svg>