<?xml version="1.0" encoding="utf-8"?>
<!-- Generator: Adobe Illustrator 25.2.0, SVG Export Plug-In . SVG Version: 6.00 Build 0)  -->
<svg version="1.1" id="Capa_1" xmlns="http://www.w3.org/2000/svg" xmlns:xlink="http://www.w3.org/1999/xlink" x="0px" y="0px"
	 viewBox="0 0 512 512" style="enable-background:new 0 0 512 512;" xml:space="preserve" fill="currentColor">
<g>
	<g>
		<path d="M398.2,33.6h-36c0.4,2.3,0.6,4.7,0.6,7.1v31.4c0,22.4-18.2,40.6-40.6,40.6H189.7c-22.4,0-40.6-18.2-40.6-40.6V40.7
			c0-2.4,0.2-4.8,0.6-7.1h-36c-24.8,0-45,20.2-45,45V467c0,24.8,20.2,45,45,45h284.5c24.8,0,45-20.2,45-45V78.6
			C443.2,53.8,423,33.6,398.2,33.6z M142.6,178c7.1-4.2,16.3-1.8,20.5,5.4l7.1,12.1l33.5-48.5c4.7-6.8,14.1-8.5,20.9-3.8
			c6.8,4.7,8.5,14.1,3.8,20.9l-46.9,67.8c-2.8,4.1-7.4,6.5-12.3,6.5c-0.2,0-0.4,0-0.6,0c-5.1-0.2-9.8-3-12.4-7.4l-19-32.4
			C133,191.4,135.4,182.2,142.6,178z M228.4,274.8l-46.9,67.8c-2.8,4.1-7.4,6.5-12.3,6.5c-0.2,0-0.4,0-0.6,0
			c-5.1-0.2-9.8-3-12.4-7.4l-19-32.4c-4.2-7.1-1.8-16.3,5.4-20.5c7.1-4.2,16.3-1.8,20.5,5.4l7.1,12.1l33.5-48.5
			c4.7-6.8,14.1-8.5,20.9-3.8C231.4,258.7,233.1,268,228.4,274.8z M362.8,335.5H261.2c-8.3,0-15-6.7-15-15s6.7-15,15-15h101.6
			c8.3,0,15,6.7,15,15S371.1,335.5,362.8,335.5z M362.8,279.5H261.2c-8.3,0-15-6.7-15-15s6.7-15,15-15h101.6c8.3,0,15,6.7,15,15
			S371.1,279.5,362.8,279.5z M362.8,224.7H261.2c-8.3,0-15-6.7-15-15c0-8.3,6.7-15,15-15h101.6c8.3,0,15,6.7,15,15
			S371.1,224.7,362.8,224.7z"/>
	</g>
</g>
<g>
	<g>
		<path d="M322.3,0H189.7c-5.8,0-10.6,4.8-10.6,10.6v61.5h0c0,5.8,4.8,10.6,10.6,10.6h132.7c5.8,0,10.6-4.8,10.6-10.6V10.6
			C332.9,4.8,328.2,0,322.3,0z"/>
	</g>
</g>
</svg>
