<?xml version="1.0" encoding="UTF-8"?>
<svg width="17px" height="14px" viewBox="0 0 17 14" version="1.1" xmlns="http://www.w3.org/2000/svg" xmlns:xlink="http://www.w3.org/1999/xlink">
    <!-- <title>Send-to-store</title> -->
    <defs>
        <polygon id="path-1" points="0 7.5e-05 16.07545 7.5e-05 16.07545 13.5178 0 13.5178"></polygon>
    </defs>
    <g id="Welcome" stroke="none" stroke-width="1" fill="none" fill-rule="evenodd">
        <g id="Icons" transform="translate(-298.000000, -578.000000)">
            <g id="Send-to-store" transform="translate(298.000000, 578.000000)">
                <mask id="mask-2" fill="white">
                    <use xlink:href="#path-1"></use>
                </mask>
                <g id="Clip-2"></g>
                <path d="M16.07545,12.257075 L12.27195,12.257075 L12.88645,12.717825 L12.28645,13.517825 L9.9387,11.757075 L12.28645,9.996575 L12.88645,10.796325 L12.2722,11.257075 L16.07545,11.257075 L16.07545,12.257075 Z M2.9572,1.000075 L12.04295,1.000075 L13.9852,2.942575 C13.87945,3.624825 13.24045,4.091825 12.55845,3.986075 C11.94895,3.891575 11.49945,3.366575 11.49995,2.750075 L10.49995,2.750075 C10.49995,3.440325 9.94045,4.000075 9.24995,4.000075 C8.5597,4.000075 7.99995,3.440325 7.99995,2.750075 L6.99995,2.750075 C6.99995,3.440325 6.4402,4.000075 5.74995,4.000075 C5.0597,4.000075 4.49995,3.440325 4.49995,2.750075 L3.49995,2.750075 C3.50045,3.440325 2.9412,4.000325 2.25095,4.000825 C1.6342,4.001325 1.10945,3.551825 1.0147,2.942575 L2.9572,1.000075 Z M1.74995,4.942075 C2.5877,5.136825 3.46295,4.833075 3.99995,4.161075 C4.77645,5.127575 6.1892,5.281825 7.1557,4.505325 C7.2827,4.403325 7.3982,4.288075 7.49995,4.161075 C8.27645,5.127575 9.6892,5.281825 10.6557,4.505325 C10.7827,4.403325 10.89795,4.288075 10.99995,4.161075 C11.5372,4.833075 12.4122,5.136825 13.24995,4.942075 L13.24995,10.000075 L14.24995,10.000075 L14.24995,4.422325 C14.7267,3.997075 14.99945,3.388825 14.99995,2.750075 L14.99995,2.542825 L12.45695,7.5e-05 L2.54295,7.5e-05 L-5e-05,2.542825 L-5e-05,2.750075 C0.00045,3.388825 0.2732,3.997075 0.74995,4.422325 L0.74995,13.000075 L9.74995,13.000075 L9.74995,12.000075 L1.74995,12.000075 L1.74995,4.942075 Z" id="Fill-1" fill="#000000" mask="url(#mask-2)"></path>
            </g>
        </g>
    </g>
</svg>