<?xml version="1.0" encoding="utf-8"?>
<!-- Generator: Adobe Illustrator 24.1.0, SVG Export Plug-In . SVG Version: 6.00 Build 0)  -->
<svg version="1.1" id="Layer_1" xmlns="http://www.w3.org/2000/svg" xmlns:xlink="http://www.w3.org/1999/xlink" x="0px" y="0px"
	 viewBox="0 0 100 125" style="enable-background:new 0 0 100 125;" xml:space="preserve">
<path d="M95.6,25.7c0,0-3.1-14.8-16.5-20C72.8,3.3,61.3,2.1,50,2C38.7,2.1,27.2,3.3,20.9,5.7c-13.4,5.2-16.5,20-16.5,20
	c-2,8.4-2.7,16.9-2.6,24.4c-0.1,7.5,0.5,16.1,2.6,24.4c0,0,3.1,14.8,16.5,20c6.3,2.4,17.8,3.6,29.1,3.7c11.3-0.1,22.8-1.2,29.1-3.7
	c13.4-5.2,16.5-20,16.5-20c2-8.4,2.7-16.9,2.6-24.4C98.3,42.6,97.7,34.1,95.6,25.7z M74.7,49.1L63.3,70.3c-0.1,0.1-4.5,8.9-13.3,8.9
	c-0.8,0-3.5-0.1-4.3-0.2c-10.2-1.9-12.8-11.2-12.9-11.3l-7.5-23.3c-0.1-0.4-0.8-1.7-0.4-3c0.3-0.8,0.8-1.4,1.7-1.8
	c1-0.5,1.9-0.5,2.7-0.2C30.5,39.8,31,41,31,41c1.7,4.8,3.9,8.9,4.6,9.1c0.2-0.1,0.3-0.2,0.4-0.4c0.4-0.7,0-2-0.1-2.4l-3.5-14.8
	c-0.1-0.2-1.5-4.8,1.5-5.9c0.8-0.3,1.7-0.3,2.4,0.1c1.2,0.7,1.7,2,1.7,2l4.6,15.6c0.2,0.8,0.6,2.4,1.3,2.3c0.2,0,0.3-0.1,0.4-0.2
	c0.3-0.4,0.2-1.7,0.2-1.7L43,26.4c-0.3-1.5-0.1-4.5,2.9-5.1c1.1-0.3,2.1-0.1,2.9,0.4c1.2,0.8,1.4,2.3,1.4,2.3
	c0.1,0.1,1.5,16.3,1.8,19.4c0.1,1.8,0.4,2.4,0.6,2.4c1,0,1.2-1.8,1.2-1.8l1.9-14.8c0-0.4,0.1-2.3,1.3-3.4c0.7-0.5,1.4-0.8,2.3-0.7
	c1.1,0.1,1.9,0.5,2.4,1.2c0.7,1,0.5,2.2,0.5,2.4l-2,20.7c0,0.8,0.2,3.3,1.4,3.5c1.5,0.3,2.4-1,2.4-1l4.9-7.2c0.8-1,2.9-2.5,4.9-1
	C75.7,45.3,75.2,47.8,74.7,49.1z"/>
</svg>
