<?xml version="1.0" encoding="UTF-8"?>
<svg width="14px" height="19px" viewBox="0 0 14 19" version="1.1" xmlns="http://www.w3.org/2000/svg" xmlns:xlink="http://www.w3.org/1999/xlink">
    <!-- <title>correction</title> -->
    <defs>
        <polygon id="path-1" points="5.4e-05 0.01296 13.81392 0.01296 13.81392 17.279982 5.4e-05 17.279982"></polygon>
    </defs>
    <g id="Welcome" stroke="currentColor" stroke-width="1" fill="none" fill-rule="evenodd">
        <g id="Icons" transform="translate(-299.000000, -97.000000)">
            <g id="correction" transform="translate(299.000000, 97.000000)">
                <g id="Group-3" transform="translate(0.000000, 0.167040)">
                    <mask id="mask-2" fill="white">
                        <use xlink:href="#path-1"></use>
                    </mask>
                    <g id="Clip-2"></g>
                    <path d="M11.547594,16.199982 L2.266974,16.199982 C1.612494,16.199982 1.080054,15.667722 1.080054,15.013422 L1.080054,2.279502 C1.080054,1.625202 1.612494,1.092942 2.266974,1.092942 L8.765334,1.092942 L8.765334,5.528682 L12.733974,5.528682 L12.733974,15.013422 C12.733974,15.667722 12.201714,16.199982 11.547594,16.199982 L11.547594,16.199982 Z M9.845334,1.966302 L12.066354,4.448682 L9.845334,4.448682 L9.845334,1.966302 Z M9.546714,0.012942 L2.266974,0.012942 C1.017054,0.012942 5.4e-05,1.029582 5.4e-05,2.279502 L5.4e-05,15.013422 C5.4e-05,16.263342 1.016874,17.279982 2.266974,17.279982 L11.547594,17.279982 C12.796974,17.279982 13.813974,16.263522 13.813974,15.013422 L13.813974,4.782402 L9.546714,0.012942 Z" id="Fill-1" fill="#000000" mask="url(#mask-2)"></path>
                </g>
                <path d="M9.214794,9.265104 L8.280054,8.330724 L8.850834,7.759944 L9.785574,8.694324 L9.214794,9.265104 Z M4.570974,12.208284 L5.337234,12.974364 L4.351014,13.194324 L4.570974,12.208284 Z M7.516134,9.094464 L8.450694,10.028844 L6.184854,12.294684 L5.250474,11.360484 L7.516134,9.094464 Z M9.411894,6.793524 C9.262674,6.643584 9.063594,6.560604 8.851914,6.560424 L8.850834,6.560424 C8.639334,6.560424 8.440614,6.642684 8.291034,6.792264 L3.774474,11.309004 C3.690414,11.381904 3.626874,11.480364 3.600774,11.597544 L2.927214,14.618124 L5.948154,13.944744 C6.067314,13.918464 6.166854,13.852944 6.240294,13.766724 L10.752534,9.254484 C10.902114,9.105264 10.984554,8.906544 10.9849152,8.695224 C10.985274,8.483364 10.903014,8.284284 10.753254,8.134524 L9.411894,6.793524 Z" id="Fill-4" fill="#000000"></path>
            </g>
        </g>
    </g>
</svg>