<?xml version="1.0" encoding="utf-8"?>
<!-- Generator: Adobe Illustrator 24.1.0, SVG Export Plug-In . SVG Version: 6.00 Build 0)  -->
<svg version="1.1" id="Capa_1" xmlns="http://www.w3.org/2000/svg" xmlns:xlink="http://www.w3.org/1999/xlink" x="0px" y="0px"
	 viewBox="0 0 550.8 550.8" style="enable-background:new 0 0 550.8 550.8;" xml:space="preserve">
<g>
	<g>
		<path d="M97.2,421.5V22.6h250.2v110.5c0,6,4.8,10.8,10.8,10.8h95.4v287.6h21.6V134.2c0-0.4-0.1-0.8-0.1-1.2c0-2.5-0.8-5-2.6-7
			L366.3,4.7c0,0-0.1,0-0.1-0.1c-0.6-0.7-1.4-1.3-2.2-1.8c-0.2-0.2-0.5-0.3-0.7-0.4c-0.7-0.4-1.4-0.7-2.1-0.9
			c-0.2-0.1-0.4-0.1-0.6-0.2C359.9,1.1,359,1,358.2,1h-261c-11.9,0-21.6,9.7-21.6,21.6v398.9H97.2z"/>
		<path d="M453.6,523.4H97.2V419.3H75.6v109.9c0,11.9,9.7,21.6,21.6,21.6h356.4c11.9,0,21.6-9.7,21.6-21.6V419.3h-21.6V523.4z"/>
	</g>
</g>
</svg>
