<?xml version="1.0" encoding="UTF-8"?>
<svg width="42px" height="41px" viewBox="0 0 42 41" version="1.1" xmlns="http://www.w3.org/2000/svg" xmlns:xlink="http://www.w3.org/1999/xlink">
    <!-- Generator: sketchtool 62 (101010) - https://sketch.com -->
    <title>2D8C4342-082C-4906-8942-8F78A852DFE1</title>
    <desc>Created with sketchtool.</desc>
    <defs>
        <polygon id="path-1" points="0.424533568 0.475 33.0867079 0.475 33.0867079 40.0866 0.424533568 40.0866"></polygon>
    </defs>
    <g id="Welcome" stroke="none" stroke-width="1" fill="none" fill-rule="evenodd">
        <g id="Login-Qualis-LIMS" transform="translate(-828.000000, -201.000000)">
            <g id="Method-execution" transform="translate(828.000000, 200.000000)">
                <path d="M38.3477,2.2639 C38.8527,2.2639 39.2607,2.6729 39.2607,3.1769 C39.2607,3.6809 38.8527,4.0899 38.3477,4.0899 C37.8437,4.0899 37.4347,3.6809 37.4347,3.1769 C37.4347,2.6729 37.8437,2.2639 38.3477,2.2639" id="Fill-1" fill="#1268E3"></path>
                <path d="M40.1749,31.4812 C40.6789,31.4812 41.0879,31.8902 41.0879,32.3942 C41.0879,32.8992 40.6789,33.3072 40.1749,33.3072 C39.6699,33.3072 39.2619,32.8992 39.2619,32.3942 C39.2619,31.8902 39.6699,31.4812 40.1749,31.4812" id="Fill-3" fill="#1268E3"></path>
                <path d="M22.8262,39.699 C23.3302,39.699 23.7392,40.108 23.7392,40.612 C23.7392,41.116 23.3302,41.525 22.8262,41.525 C22.3222,41.525 21.9132,41.116 21.9132,40.612 C21.9132,40.108 22.3222,39.699 22.8262,39.699" id="Fill-5" fill="#1268E3"></path>
                <path d="M25.5655,39.699 C26.0695,39.699 26.4785,40.108 26.4785,40.612 C26.4785,41.116 26.0695,41.525 25.5655,41.525 C25.0615,41.525 24.6525,41.116 24.6525,40.612 C24.6525,40.108 25.0615,39.699 25.5655,39.699" id="Fill-7" fill="#1268E3"></path>
                <path d="M6.3912,33.3074 C6.8952,33.3074 7.3042,33.7164 7.3042,34.2204 C7.3042,34.7254 6.8952,35.1334 6.3912,35.1334 C5.8872,35.1334 5.4782,34.7254 5.4782,34.2204 C5.4782,33.7164 5.8872,33.3074 6.3912,33.3074" id="Fill-9" fill="#1268E3"></path>
                <path d="M5.4781,16.8728 C5.9821,16.8728 6.3911,17.2818 6.3911,17.7858 C6.3911,18.2898 5.9821,18.6988 5.4781,18.6988 C4.9741,18.6988 4.5651,18.2898 4.5651,17.7858 C4.5651,17.2818 4.9741,16.8728 5.4781,16.8728" id="Fill-11" fill="#1268E3"></path>
                <path d="M1.8258,6.8289 C2.3298,6.8289 2.7388,7.2379 2.7388,7.7419 C2.7388,8.2459 2.3298,8.6549 1.8258,8.6549 C1.3218,8.6549 0.9128,8.2459 0.9128,7.7419 C0.9128,7.2379 1.3218,6.8289 1.8258,6.8289" id="Fill-13" fill="#1268E3"></path>
                <path d="M24.3018,22.5628 C24.6118,22.5628 24.7698,22.9398 24.5498,23.1608 C24.4138,23.2978 24.1918,23.2988 24.0538,23.1608 C23.8318,22.9388 23.9928,22.5628 24.3018,22.5628 L24.3018,22.5628 Z M23.3888,20.9368 C22.0048,21.5768 21.6998,23.3898 22.7628,24.4518 C23.3858,25.0758 24.2868,25.2378 25.0538,24.9568 L27.3088,27.2108 C27.6648,27.5668 28.2428,27.5668 28.5998,27.2108 C28.9558,26.8548 28.9558,26.2758 28.5998,25.9198 L26.3458,23.6658 C26.7358,22.6028 26.2468,21.4138 25.2148,20.9368 L25.2148,16.5218 C25.2148,16.0178 24.8058,15.6088 24.3018,15.6088 C23.7978,15.6088 23.3888,16.0178 23.3888,16.5218 L23.3888,20.9368 Z" id="Fill-15" fill="#1268E3"></path>
                <path d="M7.3043,23.2635 C7.3043,22.7595 6.8953,22.3505 6.3913,22.3505 L0.9133,22.3505 C0.4083,22.3505 0.0003,22.7595 0.0003,23.2635 C0.0003,23.7685 0.4083,24.1765 0.9133,24.1765 L6.3913,24.1765 C6.8953,24.1765 7.3043,23.7685 7.3043,23.2635" id="Fill-17" fill="#1268E3"></path>
                <path d="M7.3043,25.0896 L2.7393,25.0896 C2.2353,25.0896 1.8263,25.4986 1.8263,26.0026 C1.8263,26.5076 2.2353,26.9156 2.7393,26.9156 L7.3043,26.9156 C7.8083,26.9156 8.2173,26.5076 8.2173,26.0026 C8.2173,25.4986 7.8083,25.0896 7.3043,25.0896" id="Fill-19" fill="#1268E3"></path>
                <path d="M9.1304,28.742 C9.1304,28.238 8.7214,27.829 8.2174,27.829 L4.5654,27.829 C4.0614,27.829 3.6524,28.238 3.6524,28.742 C3.6524,29.246 4.0614,29.655 4.5654,29.655 L8.2174,29.655 C8.7214,29.655 9.1304,29.247 9.1304,28.742" id="Fill-21" fill="#1268E3"></path>
                <g id="Group-25" transform="translate(8.000000, 0.525200)">
                    <mask id="mask-2" fill="white">
                        <use xlink:href="#path-1"></use>
                    </mask>
                    <g id="Clip-24"></g>
                    <path d="M2.606,11.4316 C2.606,8.9136 4.654,6.8666 7.171,6.8666 C8.194,6.8666 9.18,7.2166 9.974,7.8326 C7.134,9.0726 4.776,11.0956 3.127,13.5466 C2.787,12.8996 2.606,12.1776 2.606,11.4316 M16.302,11.1916 C16.806,11.1916 17.215,10.7826 17.215,10.2786 L17.215,8.3726 C20.401,8.5776 23.303,9.8506 25.563,11.8366 L24.219,13.1796 C23.862,13.5356 23.862,14.1146 24.219,14.4706 C24.576,14.8276 25.153,14.8276 25.511,14.4706 L26.854,13.1276 C28.84,15.3876 30.112,18.2876 30.317,21.4746 L28.412,21.4746 C27.907,21.4746 27.499,21.8836 27.499,22.3886 C27.499,22.8926 27.907,23.3006 28.412,23.3006 L30.317,23.3006 C30.112,26.4886 28.84,29.3886 26.854,31.6486 L25.511,30.3056 C25.154,29.9496 24.576,29.9496 24.219,30.3056 C23.862,30.6616 23.862,31.2406 24.219,31.5966 L25.563,32.9406 C23.303,34.9256 20.401,36.1986 17.215,36.4046 L17.215,34.4976 C17.215,33.9936 16.806,33.5846 16.302,33.5846 C15.798,33.5846 15.389,33.9936 15.389,34.4976 L15.389,36.4046 C12.202,36.1986 9.301,34.9256 7.042,32.9406 L8.384,31.5966 C8.741,31.2406 8.741,30.6616 8.384,30.3056 C8.028,29.9496 7.45,29.9496 7.093,30.3056 L5.75,31.6486 C3.764,29.3886 2.492,26.4886 2.286,23.3006 L4.192,23.3006 C4.696,23.3006 5.105,22.8926 5.105,22.3886 C5.105,21.8836 4.696,21.4746 4.192,21.4746 L2.286,21.4746 C2.492,18.2876 3.764,15.3876 5.75,13.1276 L7.093,14.4706 C7.45,14.8276 8.028,14.8276 8.384,14.4706 C8.741,14.1146 8.741,13.5356 8.384,13.1796 L7.042,11.8366 C9.301,9.8506 12.202,8.5776 15.389,8.3726 L15.389,10.2786 C15.389,10.7826 15.798,11.1916 16.302,11.1916 M25.433,6.8666 C27.949,6.8666 29.998,8.9136 29.998,11.4316 C29.998,12.1776 29.816,12.8996 29.478,13.5466 C27.827,11.0956 25.47,9.0726 22.63,7.8326 C23.424,7.2166 24.41,6.8666 25.433,6.8666 M13.563,2.7576 C13.563,2.5056 13.768,2.3006 14.019,2.3006 L18.585,2.3006 C18.836,2.3006 19.041,2.5056 19.041,2.7576 C19.041,3.0096 18.836,3.2136 18.585,3.2136 L14.019,3.2136 C13.768,3.2136 13.563,3.0096 13.563,2.7576 M32.908,37.8896 C32.935,37.8536 32.928,37.8656 32.96,37.8116 C32.982,37.7726 32.976,37.7866 33.001,37.7346 C33.107,37.5046 33.117,37.2356 33.018,36.9976 C32.924,36.7706 32.954,36.8386 30.994,34.8756 C30.637,34.5196 30.06,34.5196 29.702,34.8756 C29.346,35.2326 29.346,35.8106 29.702,36.1666 L29.97,36.4346 L23.687,36.4346 C31.304,32.4136 34.374,23.0466 30.508,15.3136 C31.359,14.2026 31.824,12.8466 31.824,11.4316 C31.824,7.9076 28.957,5.0396 25.433,5.0396 C23.63,5.0396 21.906,5.8136 20.702,7.1366 C19.585,6.8136 18.418,6.6116 17.215,6.5426 L17.215,5.0396 L18.585,5.0396 C19.843,5.0396 20.867,4.0156 20.867,2.7576 C20.867,1.4986 19.843,0.4746 18.585,0.4746 L14.019,0.4746 C12.761,0.4746 11.737,1.4986 11.737,2.7576 C11.737,4.0156 12.761,5.0396 14.019,5.0396 L15.389,5.0396 L15.389,6.5426 C14.186,6.6116 13.019,6.8136 11.902,7.1366 C10.698,5.8136 8.974,5.0396 7.171,5.0396 C3.647,5.0396 0.78,7.9076 0.78,11.4316 C0.78,12.8466 1.244,14.2026 2.096,15.3136 C-1.746,22.9966 1.245,32.3846 8.918,36.4346 L2.957,36.4346 C2.452,36.4346 2.044,36.8436 2.044,37.3476 C2.044,37.8516 2.452,38.2606 2.957,38.2606 L29.97,38.2606 L29.702,38.5286 C29.346,38.8846 29.346,39.4626 29.702,39.8196 C30.06,40.1756 30.637,40.1756 30.994,39.8196 C31.712,39.1006 32.782,38.0326 32.831,37.9806 C32.879,37.9316 32.888,37.9166 32.908,37.8896" id="Fill-23" fill="#1268E3" mask="url(#mask-2)"></path>
                </g>
                <path d="M20.087,39.699 L2.739,39.699 C2.235,39.699 1.826,40.107 1.826,40.612 C1.826,41.116 2.235,41.525 2.739,41.525 L20.087,41.525 C20.591,41.525 21,41.116 21,40.612 C21,40.107 20.591,39.699 20.087,39.699" id="Fill-26" fill="#1268E3"></path>
                <path d="M32.8692,4.0896 L35.6082,4.0896 C36.1122,4.0896 36.5212,3.6806 36.5212,3.1766 C36.5212,2.6726 36.1122,2.2636 35.6082,2.2636 L32.8692,2.2636 C32.3652,2.2636 31.9562,2.6726 31.9562,3.1766 C31.9562,3.6806 32.3652,4.0896 32.8692,4.0896" id="Fill-28" fill="#1268E3"></path>
                <path d="M3.1959,13.2205 C3.4469,13.2205 3.6529,13.4255 3.6529,13.6765 C3.6529,13.9285 3.4469,14.1335 3.1959,14.1335 C2.9439,14.1335 2.7389,13.9285 2.7389,13.6765 C2.7389,13.4255 2.9439,13.2205 3.1959,13.2205 M3.1959,15.9595 C4.4539,15.9595 5.4779,14.9355 5.4779,13.6765 C5.4779,12.4185 4.4539,11.3945 3.1959,11.3945 C1.9369,11.3945 0.9129,12.4185 0.9129,13.6765 C0.9129,14.9355 1.9369,15.9595 3.1959,15.9595" id="Fill-30" fill="#1268E3"></path>
                <path d="M7.3043,3.1765 C7.8073,3.1765 8.2173,3.5865 8.2173,4.0895 C8.2173,4.5935 7.8073,5.0025 7.3043,5.0025 C6.8013,5.0025 6.3913,4.5935 6.3913,4.0895 C6.3913,3.5865 6.8013,3.1765 7.3043,3.1765 M7.3043,6.8285 C8.8153,6.8285 10.0433,5.5995 10.0433,4.0895 C10.0433,2.5795 8.8153,1.3505 7.3043,1.3505 C5.7943,1.3505 4.5653,2.5795 4.5653,4.0895 C4.5653,5.5995 5.7943,6.8285 7.3043,6.8285" id="Fill-32" fill="#1268E3"></path>
            </g>
        </g>
    </g>
</svg>