<?xml version="1.0" encoding="iso-8859-1"?>
<!-- Generator: Adobe Illustrator 19.0.0, SVG Export Plug-In . SVG Version: 6.00 Build 0)  -->
<svg version="1.1" id="Capa_1" xmlns="http://www.w3.org/2000/svg" xmlns:xlink="http://www.w3.org/1999/xlink" x="0px" y="0px"
	 viewBox="0 0 512 512" style="enable-background:new 0 0 512 512;" xml:space="preserve">
<g>
	<g>
		<path d="M109.874,148.471c2.846-6.353,4.442-13.382,4.442-20.78c0-3.636-0.389-7.182-1.116-10.605
			c-4.896-23.057-25.406-40.41-49.899-40.41c-28.131,0-51.016,22.885-51.016,51.015c0,28.13,22.885,51.016,51.016,51.016
			c9.833,0,19.021-2.804,26.819-7.643l20.294,17.739c5.694-8.279,12.33-15.863,19.759-22.587L109.874,148.471z"/>
	</g>
</g>
<g>
	<g>
		<path d="M372.788,0c-34.139,0-61.913,27.774-61.913,61.914c0,4.413,0.473,8.717,1.354,12.871
			c1.973,9.291,6.04,17.811,11.676,25.058l-40.901,52.059c8.575,5.261,16.488,11.5,23.58,18.562l40.905-52.063
			c7.73,3.476,16.289,5.427,25.299,5.427c34.139,0,61.914-27.774,61.914-61.914S406.927,0,372.788,0z"/>
	</g>
</g>
<g>
	<g>
		<path d="M122.267,411.12l29.354-39.044c-8.689-5.08-16.733-11.146-23.97-18.056l-29.349,39.037
			c-7.412-3.144-15.558-4.885-24.103-4.885c-34.139,0-61.914,27.774-61.914,61.914S40.059,512,74.198,512
			s61.914-27.774,61.914-61.914c0-4.057-0.404-8.02-1.152-11.863C132.985,428.093,128.538,418.841,122.267,411.12z"/>
	</g>
</g>
<g>
	<g>
		<path d="M216.14,163.059c-54.164,0-98.231,44.066-98.231,98.23c0,54.163,44.066,98.23,98.231,98.23
			c54.164,0,98.23-44.066,98.23-98.23C314.37,207.125,270.305,163.059,216.14,163.059z"/>
	</g>
</g>
<g>
	<g>
		<path d="M417.658,300.976c-24.328,0-46.206,10.652-61.247,27.525l-23.509-14.203c-4.185,9.183-9.424,17.786-15.559,25.661
			l23.515,14.206c-3.389,8.986-5.258,18.711-5.258,28.868c0,5.378,0.535,10.63,1.527,15.722c7.357,37.75,40.66,66.336,80.53,66.336
			c45.247,0,82.058-36.811,82.058-82.058C499.716,337.787,462.905,300.976,417.658,300.976z"/>
	</g>
</g>
<g>
</g>
<g>
</g>
<g>
</g>
<g>
</g>
<g>
</g>
<g>
</g>
<g>
</g>
<g>
</g>
<g>
</g>
<g>
</g>
<g>
</g>
<g>
</g>
<g>
</g>
<g>
</g>
<g>
</g>
</svg>
