<?xml version="1.0" encoding="UTF-8"?>
<svg width="20px" height="20px" viewBox="0 0 20 20" version="1.1" xmlns="http://www.w3.org/2000/svg" xmlns:xlink="http://www.w3.org/1999/xlink">
    <!-- <title>pre-register</title> -->
    <defs>
        <polygon id="path-1" points="0.136169992 0.085 14.7926 0.085 14.7926 14.7 0.136169992 14.7"></polygon>
    </defs>
    <g id="Welcome" stroke="none" stroke-width="1" fill="none" fill-rule="evenodd">
        <g id="Icons" transform="translate(-297.000000, -524.000000)">
            <g id="pre-register" transform="translate(297.000000, 524.000000)">
                <polygon id="Fill-1" fill="#000000" points="0 5.35508 0 19.11508 13.76 19.11508 13.76 9.87508 12.7198 10.91488 12.7198 18.07488 1.04 18.07488 1.04 6.39508 8.3402 6.39508 9.38 5.35508"></polygon>
                <g id="Group-4" transform="translate(4.200000, 0.115000)">
                    <mask id="mask-2" fill="white">
                        <use xlink:href="#path-1"></use>
                    </mask>
                    <g id="Clip-3"></g>
                    <path d="M12.85996,3.54 L12.09996,2.78 L11.33996,2.02 L12.19996,1.16 L13.71996,2.68 L12.85996,3.54 Z M3.83996,12.54 L2.31996,11.02 L10.58016,2.76 L11.33996,3.52 L12.09996,4.28 L3.83996,12.54 Z M2.87996,13.52 L1.23996,13.64 L1.35996,12 L1.59996,11.76 L3.11996,13.28 L2.87996,13.52 Z M14.53996,2.04 L12.83996,0.34 C12.49996,-1.95676808e-15 11.89996,-1.95676808e-15 11.53996,0.34 L0.47996,11.4 C0.39996,11.48 0.33996,11.6 0.31996,11.72 L0.13996,14.14 C0.11996,14.28 0.17996,14.44 0.29996,14.54 C0.39996,14.64 0.51996,14.7 0.65996,14.7 L0.69996,14.7 L3.13996,14.54 C3.25996,14.54 3.37996,14.48 3.45996,14.38 L14.51996,3.32 C14.88016,2.96 14.88016,2.38 14.53996,2.04 L14.53996,2.04 Z" id="Fill-2" fill="#000000" mask="url(#mask-2)"></path>
                </g>
            </g>
        </g>
    </g>
</svg>