<?xml version="1.0" encoding="UTF-8"?>
<svg width="17px" height="21px" viewBox="0 0 17 21" version="1.1" xmlns="http://www.w3.org/2000/svg" xmlns:xlink="http://www.w3.org/1999/xlink">
    <!-- <title>Quarantine</title> -->
    <g id="Welcome" stroke="currentColor" stroke-width="1" fill="none" fill-rule="evenodd">
        <g id="Icons" transform="translate(-298.000000, -494.000000)" fill="#000000">
            <g id="Quarantine" transform="translate(298.000000, 494.000000)">
                <g id="Group-9" transform="translate(9.000000, 0.000000)">
                    <path d="M3.6,18.9 C2.2746,18.9 1.2,17.8254 1.2,16.5 L1.2,5.229 C1.446,5.07 1.983,4.875 3.126,4.914 C3.372,4.914 3.612,4.935 3.849,4.95 C4.5654,5.0145 5.2866,5.0013 6,4.911 L6,16.5 C6,17.8254 4.9254,18.9 3.6,18.9 L3.6,18.9 Z M6,1.2 L6,3.69 C5.3118,3.8022 4.6116,3.8226 3.918,3.75 C3.672,3.75 3.42,3.723 3.165,3.714 C2.5029,3.6735 1.839,3.7434 1.2,3.921 L1.2,1.2 L6,1.2 Z M6.6,0 L0.6,0 C0.2688,0 0,0.2688 0,0.6 L0,16.5 C0,18.4881 1.6119,20.1 3.6,20.1 C5.5881,20.1 7.2,18.4881 7.2,16.5 L7.2,0.6 C7.2,0.2688 6.9312,0 6.6,0 L6.6,0 Z" id="Fill-1"></path>
                    <path d="M4.95,5.52306 L4.95,5.52306 C4.6188,5.52306 4.35,5.79186 4.35,6.12306 C4.35,6.45426 4.6188,6.72306 4.95,6.72306 C5.2812,6.72306 5.55,6.45426 5.55,6.12306 C5.55,5.79186 5.2812,5.52306 4.95,5.52306 L4.947,5.52306 L4.95,5.52306 Z" id="Fill-3"></path>
                    <path d="M3.15,6.72306 L3.15,6.72306 C2.8188,6.72306 2.55,6.99186 2.55,7.32306 C2.55,7.65426 2.8188,7.92306 3.15,7.92306 C3.4812,7.92306 3.75,7.65426 3.75,7.32306 C3.75,6.99186 3.4812,6.72306 3.15,6.72306 L3.147,6.72306 L3.15,6.72306 Z" id="Fill-5"></path>
                    <path d="M4.95,7.92306 L4.95,7.92306 C4.6188,7.92306 4.35,8.19186 4.35,8.52306 C4.35,8.85426 4.6188,9.12306 4.95,9.12306 C5.2812,9.12306 5.55,8.85426 5.55,8.52306 C5.55,8.19186 5.2812,7.92306 4.95,7.92306 L4.947,7.92306 L4.95,7.92306 Z" id="Fill-7"></path>
                </g>
                <path d="M1.75,10.95 L5.25,10.95 L5.25,7.1 L1.75,7.1 L1.75,10.95 Z M3.5,15.9 C2.50833333,15.9 1.75,15.185 1.75,14.25 L1.75,12.05 L5.25,12.05 L5.25,14.25 C5.25,15.185 4.49166667,15.9 3.5,15.9 L3.5,15.9 Z M7,6 L6.41666667,6 L0.583333333,6 L0,6 L0,7.1 L0.583333333,7.1 L0.583333333,14.25 C0.583333333,15.79 1.86666667,17 3.5,17 C5.13333333,17 6.41666667,15.79 6.41666667,14.25 L6.41666667,7.1 L7,7.1 L7,6 Z" id="Fill-1"></path>
            </g>
        </g>
    </g>
</svg>