<?xml version="1.0"?>
<svg xmlns="http://www.w3.org/2000/svg" xmlns:xlink="http://www.w3.org/1999/xlink" version="1.1" id="Capa_1" x="0px" y="0px" viewBox="0 0 512 512" style="enable-background:new 0 0 512 512;" xml:space="preserve" width="512px" height="512px"><g><g>
	<g>
		<path d="M207.85,214.73l-13.31-7.91c0.02-0.23,0.02-0.45,0.02-0.68v-66.5c0-14.89-12.12-27-27-27h-32.57c-14.88,0-27,12.11-27,27    v66.5c0,14.89,12.12,27,27,27h32.57c3.37,0,6.6-0.62,9.58-1.76l15.7,9.32l7.66-12.89l7.35-12.38l0.31-0.52L207.85,214.73z     M164.56,203.14h-26.57v-60.5h26.57V203.14z" data-original="#000000" class="active-path" data-old_color="#000000" fill="#BBC2CB"/>
	</g>
</g><g>
	<g>
		<path d="M304.15,132.67V66.55H0v221.83h35.81v90.93l114.59-90.93h57.45v66.13h153.13l114.6,90.94v-90.94H512V132.67H304.15z     M139.94,258.38l-74.13,58.83v-58.83H30V96.55h244.15v161.83H139.94z M482,324.51h-36.42v58.83l-74.15-58.83H237.85v-36.13h66.3    V162.67H482V324.51z" data-original="#000000" class="active-path" data-old_color="#000000" fill="#BBC2CB"/>
	</g>
</g><g>
	<g>
		<path d="M380.56,185.078h-21.37l-48.96,117.96h32.48l4.68-11.28h44.22l4.59,11.28h32.39L380.56,185.078z M359.85,261.758    l9.86-23.77l9.68,23.77H359.85z" data-original="#000000" class="active-path" data-old_color="#000000" fill="#BBC2CB"/>
	</g>
</g></g> </svg>
