<?xml version="1.0" encoding="UTF-8"?>
<svg width="17px" height="20px" viewBox="0 0 17 20" version="1.1" xmlns="http://www.w3.org/2000/svg" xmlns:xlink="http://www.w3.org/1999/xlink">
    <!-- <title>retest</title> -->
    <defs>
        <polygon id="path-1" points="0 0 9.36557424 0 9.36557424 17.9031164 0 17.9031164"></polygon>
    </defs>
    <g id="Welcome" stroke="none" stroke-width="1" fill="none" fill-rule="evenodd">
        <g id="Icons" transform="translate(-298.000000, -346.000000)">
            <g id="retest" transform="translate(298.000000, 346.000000)">
                <path d="M6.975,9.56 L9.725,9.56 L9.725,6.48 L6.975,6.48 L6.975,9.56 Z M8.35,13.52 C7.57083333,13.52 6.975,12.948 6.975,12.2 L6.975,10.44 L9.725,10.44 L9.725,12.2 C9.725,12.948 9.12916667,13.52 8.35,13.52 L8.35,13.52 Z M11.1,5.6 L10.6416667,5.6 L6.05833333,5.6 L5.6,5.6 L5.6,6.48 L6.05833333,6.48 L6.05833333,12.2 C6.05833333,13.432 7.06666667,14.4 8.35,14.4 C9.63333333,14.4 10.6416667,13.432 10.6416667,12.2 L10.6416667,6.48 L11.1,6.48 L11.1,5.6 Z" id="Fill-1" fill="#000000"></path>
                <g id="Group-6">
                    <g id="Group-3">
                        <mask id="mask-2" fill="white">
                            <use xlink:href="#path-1"></use>
                        </mask>
                        <g id="Clip-2"></g>
                        <path d="M1.06717644,9.75739644 C1.06717644,6.49039644 3.20161644,3.63721644 6.27259644,2.70067644 L6.27259644,4.50841644 L9.36557424,2.24329644 L6.25081644,-4.356e-05 L6.25081644,1.58989644 C2.59177644,2.56999644 -4.356e-05,5.88055644 -4.356e-05,9.75739644 C-4.356e-05,13.5688964 2.56999644,16.9012364 6.22903644,17.9031164 L6.51217644,16.8794564 C3.31051644,16.0082564 1.06717644,13.0897364 1.06717644,9.75739644" id="Fill-1" fill="#000000" mask="url(#mask-2)"></path>
                    </g>
                    <path d="M10.58508,1.69879644 L10.30194,2.72245644 C13.5036,3.59365644 15.74694,6.53395644 15.74694,9.84451644 C15.74694,13.1115164 13.6125,15.9646964 10.5633,16.9012364 L10.5633,15.0934964 L7.47054,17.3368364 L10.5633,19.6019564 L10.5633,18.0120164 C14.22234,17.0319164 16.81416,13.7213564 16.81416,9.86629644 C16.81416,6.03301644 14.24412,2.70067644 10.58508,1.69879644" id="Fill-4" fill="#000000"></path>
                </g>
            </g>
        </g>
    </g>
</svg>