<?xml version="1.0" encoding="UTF-8"?>
<svg width="17px" height="16px" viewBox="0 0 17 16" version="1.1" xmlns="http://www.w3.org/2000/svg" xmlns:xlink="http://www.w3.org/1999/xlink">
    <!-- <title>review</title> -->
    <defs>
        <polygon id="path-1" points="8.8e-05 2.2e-05 16.032148 2.2e-05 16.032148 15.1173 8.8e-05 15.1173"></polygon>
    </defs>
    <g id="Welcome" stroke="currentColor" stroke-width="1" fill="none" fill-rule="evenodd" >
        <g id="Icons" transform="translate(-299.000000, -169.000000)">
            <g id="review" transform="translate(299.000000, 169.000000)">
                <mask id="mask-2" fill="white">
                    <use xlink:href="#path-1"></use>
                </mask>
                <g id="Clip-2"></g>
                <path d="M11.954008,11.554862 C11.099308,11.554862 10.404768,10.860102 10.404768,10.005622 C10.404768,9.151362 11.099308,8.456382 11.954008,8.456382 C12.808268,8.456382 13.503468,9.151362 13.503468,10.005622 C13.503468,10.419662 13.342428,10.808182 13.049388,11.101002 C12.756568,11.393602 12.368048,11.554862 11.954008,11.554862 L11.954008,11.554862 Z M3.480268,14.111042 L3.480268,3.529262 L11.469788,3.529262 L11.469788,7.496742 C10.291468,7.723782 9.398488,8.762182 9.398488,10.005622 C9.398488,11.249062 10.291468,12.287462 11.469788,12.514282 L11.469788,14.111042 L3.480268,14.111042 Z M1.006368,11.588082 L1.006368,1.006082 L8.995228,1.006082 L8.995228,2.523202 L2.474428,2.523202 L2.474428,11.588082 L1.006368,11.588082 Z M15.361148,13.881582 L16.032148,13.131822 L14.096148,11.399762 C14.365208,10.988582 14.509308,10.508322 14.509308,10.005622 C14.509308,8.775162 13.635468,7.745342 12.475848,7.503782 L12.475848,2.522982 L10.001508,2.522982 L10.001508,2.2e-05 L8.8e-05,2.2e-05 L8.8e-05,12.594362 L2.474428,12.594362 L2.474428,15.117322 L12.475848,15.117322 L12.475848,12.507682 C12.803868,12.439702 13.113848,12.308362 13.391048,12.118722 L15.361148,13.881582 Z" id="Fill-1" fill="#000000" mask="url(#mask-2)"></path>
            </g>
        </g>
    </g>
</svg>